<?xml version="1.0" standalone="no"?>
<!DOCTYPE svg PUBLIC "-//W3C//DTD SVG 20010904//EN"
 "http://www.w3.org/TR/2001/REC-SVG-20010904/DTD/svg10.dtd">
<svg version="1.0" xmlns="http://www.w3.org/2000/svg"
 width="1250.000000pt" height="1250.000000pt" viewBox="0 0 1250.000000 1250.000000"
 preserveAspectRatio="xMidYMid meet">
<metadata>
Created by potrace 1.14, written by Peter Selinger 2001-2017
</metadata>
<g transform="translate(0.000000,1250.000000) scale(0.100000,-0.100000)"
fill="#000000" stroke="none">
<path d="M6320 11047 c0 -2 7 -19 16 -37 26 -52 9 -92 -126 -295 -27 -41 -43
-102 -37 -142 3 -18 1 -33 -4 -33 -14 0 -49 62 -49 89 0 18 -4 22 -17 16 -10
-4 -25 -8 -33 -9 -8 0 -17 -4 -20 -8 -4 -4 -20 -11 -37 -14 -29 -6 -31 -4 -26
16 4 17 2 21 -8 18 -18 -6 -24 -109 -9 -139 7 -11 9 -23 6 -27 -8 -8 -66 49
-66 65 0 7 -4 13 -10 13 -6 0 -9 3 -9 8 1 4 1 9 0 12 -1 3 -4 36 -6 74 -6 85
-28 167 -53 189 -27 25 -87 47 -128 47 l-37 0 34 -23 c56 -38 61 -56 54 -199
-4 -82 -2 -129 5 -133 5 -3 10 1 10 9 0 9 5 15 12 14 6 -2 14 6 16 16 7 32 30
50 46 36 11 -9 15 -7 19 7 3 12 5 8 6 -9 0 -16 5 -28 11 -28 5 0 7 -7 4 -15
-6 -14 -113 -72 -126 -68 -12 4 20 -88 38 -108 26 -29 -3 -25 -49 6 -30 21
-81 95 -79 115 0 3 -4 4 -10 2 -5 -1 -7 2 -3 8 8 14 -21 99 -43 125 -36 43
-65 55 -129 55 -34 0 -65 -4 -68 -10 -3 -5 4 -10 15 -10 42 0 86 -59 104 -137
9 -40 16 -81 16 -92 0 -12 5 -21 11 -21 5 0 8 -4 4 -10 -8 -13 5 -60 17 -60 5
0 6 5 3 10 -3 6 1 13 9 16 9 3 16 13 16 21 0 8 -4 12 -9 8 -5 -3 -2 9 7 27
l16 33 12 -30 c7 -17 16 -29 21 -27 9 2 9 -4 -2 -35 -4 -13 -12 -23 -18 -23
-5 0 -16 -8 -24 -17 -8 -10 -12 -12 -8 -6 4 9 1 11 -10 6 -9 -3 -12 -9 -7 -12
5 -3 13 -17 17 -31 4 -14 21 -37 38 -52 l32 -27 -30 -1 c-16 0 -44 8 -60 18
-42 26 -92 77 -87 91 2 6 -3 14 -12 17 -9 3 -16 11 -16 18 0 14 -66 79 -97 95
-33 17 -83 13 -133 -11 l-45 -22 39 -4 c62 -5 89 -33 147 -144 47 -93 95 -165
76 -115 -4 11 -2 17 8 17 8 0 15 5 15 11 0 6 -7 9 -15 5 -8 -3 -15 -1 -15 4 0
6 5 10 11 10 5 0 7 5 4 10 -3 6 0 10 7 11 8 0 7 3 -3 7 -14 6 -14 11 -2 37 10
21 13 23 9 8 -2 -13 0 -23 5 -23 5 0 9 7 9 15 0 21 11 18 37 -9 20 -21 21 -25
8 -42 -8 -10 -15 -27 -15 -36 0 -9 -7 -21 -15 -25 -8 -5 -16 -24 -18 -43 -2
-30 -6 -35 -37 -41 -26 -6 -40 -3 -52 8 -21 19 -23 30 -5 36 6 2 3 3 -9 1 -11
-2 -38 9 -60 25 -84 61 -154 61 -224 2 l-35 -30 49 6 c36 4 47 3 42 -5 -5 -8
1 -12 17 -12 29 0 57 -27 36 -34 -152 -48 -198 -64 -273 -93 -160 -62 -301
-142 -384 -218 -50 -45 -59 -48 -76 -24 -8 12 -12 27 -10 34 11 28 218 138
444 235 143 62 179 80 130 65 -106 -32 -479 -213 -600 -290 -73 -47 -197 -165
-228 -217 -21 -37 -28 -35 -42 7 -9 28 -9 39 0 51 22 25 221 168 325 232 136
84 143 90 50 42 -102 -53 -197 -118 -355 -240 -141 -110 -213 -182 -256 -255
-24 -42 -29 -47 -32 -28 -4 26 110 167 200 248 29 26 52 52 50 57 -1 5 71 84
160 176 90 91 141 148 113 125 -64 -53 -491 -484 -488 -493 1 -4 -10 -18 -25
-31 l-27 -24 24 28 c14 15 20 27 15 27 -5 0 -62 -50 -127 -111 -105 -100 -120
-110 -142 -102 l-25 8 27 40 c87 128 338 424 677 798 94 104 173 193 175 199
9 26 -528 -554 -723 -781 -54 -63 -96 -108 -93 -100 35 87 67 237 67 319 0 33
6 52 23 70 12 14 70 81 129 150 58 69 174 205 257 302 83 98 210 249 282 335
72 87 147 178 167 202 50 60 53 73 5 20 -35 -39 -348 -403 -472 -549 -25 -30
-62 -73 -81 -95 -19 -22 -60 -69 -90 -105 -85 -101 -93 -110 -170 -197 -39
-46 -78 -83 -86 -83 -29 0 -170 -63 -233 -104 -88 -56 -143 -114 -183 -192
-20 -38 -36 -60 -42 -54 -21 21 215 349 478 664 93 111 439 510 456 526 3 3
16 19 29 35 76 93 -239 -241 -350 -371 -256 -300 -482 -580 -574 -712 l-58
-83 -24 43 c-13 24 -35 62 -49 85 l-24 41 102 134 c112 147 275 344 351 425
27 29 56 62 64 75 40 64 -318 -326 -443 -482 -181 -226 -294 -448 -294 -579 0
-23 -3 -41 -7 -41 -16 1 -83 96 -83 118 0 32 56 139 140 267 63 95 136 193
365 490 l46 60 -41 -45 c-109 -118 -303 -372 -412 -540 -159 -245 -215 -367
-263 -570 -10 -41 -19 -76 -20 -78 -7 -9 -75 29 -75 41 0 98 321 672 550 982
93 126 109 157 29 55 -180 -229 -382 -559 -539 -883 -111 -228 -150 -371 -150
-551 0 -34 -3 -65 -6 -69 -3 -3 -21 4 -40 15 -40 23 -41 34 -18 146 27 135
105 349 200 551 30 63 54 117 54 120 -1 27 -124 -229 -189 -394 -25 -64 -26
-43 -1 65 23 98 25 128 6 85 -7 -16 -11 -33 -9 -38 2 -4 -3 -14 -11 -23 -9 -8
-16 -21 -16 -27 0 -7 4 -6 10 3 5 8 10 12 10 9 0 -15 -84 -368 -115 -479 -46
-168 -58 -246 -53 -346 4 -75 2 -84 -13 -84 -9 0 -28 13 -42 30 -25 29 -25 30
-11 92 23 102 120 452 168 608 25 79 44 146 42 147 -10 10 -120 -346 -190
-612 -25 -95 -45 -156 -45 -137 -2 70 71 597 135 976 14 82 23 150 21 153 -5
5 -8 -11 -82 -430 -55 -311 -104 -629 -106 -683 -1 -29 -1 -29 -11 6 -31 112
-55 174 -94 248 l-43 83 45 337 c62 465 111 854 118 937 l5 70 -14 -85 c-8
-47 -40 -272 -70 -500 -31 -228 -67 -492 -80 -586 l-24 -171 -55 -73 c-114
-152 -167 -305 -150 -432 7 -47 6 -67 -1 -65 -6 3 -10 75 -9 208 2 242 23 463
94 965 28 196 49 358 47 360 -5 5 -54 -278 -87 -506 -46 -316 -80 -639 -87
-817 -3 -90 -10 -163 -15 -163 -5 0 -25 10 -46 23 -20 13 -56 31 -80 41 l-42
19 5 61 c2 34 10 122 15 196 6 74 25 229 41 344 16 115 28 211 25 213 -5 5
-49 -232 -75 -402 -62 -407 -51 -747 29 -883 12 -19 19 -36 17 -38 -6 -6 -101
24 -119 38 -43 32 -48 358 -13 727 9 90 15 171 13 180 -2 9 -12 -63 -23 -159
-28 -246 -29 -773 -2 -900 16 -73 59 -217 82 -272 5 -13 2 -18 -8 -18 -9 0
-18 4 -21 8 -3 5 -30 107 -61 227 -56 217 -57 219 -64 414 -5 108 -7 266 -5
351 l2 155 -9 -120 c-21 -274 8 -791 61 -1066 18 -97 69 -233 118 -318 14 -25
34 -62 44 -81 l19 -35 -42 -3 c-23 -2 -47 -1 -55 2 -26 10 -114 339 -159 596
-26 151 -33 127 -10 -33 23 -153 59 -301 121 -507 31 -102 59 -194 62 -204 5
-17 2 -16 -22 5 -22 21 -38 63 -82 210 -30 101 -66 230 -81 287 -14 56 -27
101 -30 99 -8 -9 55 -252 137 -529 8 -27 8 -27 -15 -12 -28 19 -22 -1 -179
534 -195 666 -286 963 -293 956 -5 -4 41 -166 258 -909 88 -301 161 -555 161
-565 1 -9 -6 -44 -15 -77 -55 -205 -40 -385 43 -532 22 -38 26 -53 16 -53 -16
0 -85 151 -162 359 -76 203 -158 466 -275 880 -135 479 -155 529 -63 156 110
-440 323 -1119 413 -1319 12 -25 21 -49 21 -54 0 -5 -23 -5 -52 -1 -29 4 -78
8 -109 8 -57 1 -57 1 -67 39 -6 20 -38 116 -72 212 -61 176 -157 494 -181 604
-7 33 -15 54 -16 49 -2 -6 10 -73 27 -149 151 -664 318 -1062 506 -1207 l54
-42 -77 -8 -78 -9 -30 35 c-73 85 -178 328 -322 747 -46 135 -81 229 -77 210
11 -59 132 -424 190 -574 68 -174 207 -462 262 -544 43 -62 127 -164 194 -237
21 -22 38 -43 38 -48 0 -13 -62 -46 -77 -40 -12 5 -153 204 -153 216 0 2 -22
42 -48 88 -107 186 -257 498 -344 714 -39 98 -58 135 -43 85 10 -32 99 -258
133 -335 105 -239 370 -719 466 -843 61 -80 198 -208 283 -266 l73 -49 -28
-16 c-76 -45 -76 -45 -130 14 -126 137 -305 378 -424 569 -37 60 -71 112 -74
115 -22 21 116 -220 180 -314 83 -121 245 -326 296 -375 3 -3 30 -34 60 -70
30 -36 117 -129 193 -206 138 -140 139 -141 111 -149 -27 -6 -35 -1 -98 67
-143 152 -383 428 -485 557 -130 163 -166 206 -110 126 62 -88 163 -218 244
-315 39 -47 74 -92 77 -100 9 -23 451 -483 561 -583 53 -49 97 -93 97 -98 0
-21 -36 -6 -79 34 -25 23 -57 51 -71 62 -14 11 -43 43 -65 70 -22 28 -80 88
-130 135 -253 237 -433 427 -603 638 -46 56 -86 102 -89 102 -6 0 21 -37 126
-170 116 -147 246 -295 357 -405 l102 -101 -16 -52 c-9 -29 -21 -52 -26 -52
-27 0 -454 449 -750 787 -59 68 -110 123 -114 123 -3 0 8 -15 24 -33 17 -17
39 -44 50 -58 42 -59 454 -528 573 -654 100 -105 101 -109 34 -75 -60 30 -198
70 -241 70 -15 0 -38 14 -61 38 -39 41 -89 94 -341 362 -91 96 -222 233 -292
305 -69 71 -136 142 -148 158 -12 15 -31 32 -43 38 -14 7 -10 -1 13 -23 19
-19 50 -52 69 -74 19 -21 68 -75 110 -119 42 -44 103 -110 136 -145 33 -36
161 -172 285 -304 l224 -238 22 -89 c42 -164 112 -279 212 -346 31 -20 51 -38
44 -41 -13 -4 -60 33 -197 151 -109 95 -351 340 -579 587 -206 223 -277 288
-126 115 245 -280 662 -708 794 -815 30 -25 55 -47 55 -50 0 -3 -36 -19 -81
-37 l-81 -32 -37 32 c-53 45 -319 313 -430 432 -94 101 -66 64 89 -120 113
-132 327 -347 424 -423 109 -86 205 -140 287 -161 l70 -18 -50 -32 c-38 -25
-57 -31 -77 -26 -68 17 -264 179 -533 440 -188 184 -191 186 -72 58 340 -364
670 -613 915 -689 50 -15 56 -20 51 -38 -9 -30 -24 -46 -42 -46 -69 0 -598
377 -827 589 -46 43 -51 46 -20 13 158 -172 650 -535 880 -650 79 -39 201 -77
300 -92 44 -7 82 -14 84 -16 8 -7 -50 -74 -64 -74 -44 0 -442 194 -592 288
-46 29 -83 50 -83 47 0 -7 153 -105 245 -158 133 -76 523 -244 625 -269 25 -6
87 -14 138 -17 l93 -6 -38 -37 -38 -37 -75 26 c-110 38 -479 187 -588 239 -53
24 -97 42 -100 40 -2 -3 11 -11 29 -19 19 -8 77 -35 129 -60 318 -150 857
-337 971 -337 l22 0 -23 -25 -23 -24 24 -9 c13 -5 54 -15 92 -22 l67 -12 0
-49 c0 -27 -5 -49 -10 -49 -6 0 -50 13 -98 29 -150 50 -258 71 -359 71 -49 0
-63 -3 -64 -15 -1 -8 -2 -20 -3 -26 -1 -12 -70 -39 -102 -39 -17 0 -20 5 -16
25 6 31 -13 33 -67 6 -74 -38 -140 -140 -160 -247 -5 -27 -12 -94 -16 -149 -6
-98 -5 -99 12 -75 42 58 107 120 148 139 48 23 178 30 190 11 3 -5 -3 -10 -13
-10 -60 0 -197 -117 -243 -207 -13 -26 -27 -50 -30 -53 -9 -8 -47 -141 -58
-204 -6 -33 -11 -98 -10 -145 l0 -86 22 63 c27 77 89 145 164 179 29 13 53 31
53 38 0 7 6 16 13 18 9 4 9 8 -2 15 -12 9 -12 13 -2 26 8 9 21 16 30 16 18 0
102 -29 85 -30 -9 0 -10 -12 -5 -51 1 -4 21 -9 46 -12 73 -10 162 -44 315
-120 231 -115 303 -140 514 -177 146 -25 308 2 363 61 33 36 40 64 48 190 4
64 10 122 15 129 10 16 57 -4 197 -88 111 -67 263 -142 286 -142 9 0 18 -4 21
-9 3 -5 16 -11 28 -14 13 -3 41 -11 63 -17 220 -62 407 -49 491 35 25 24 44
77 46 122 2 68 -12 261 -22 308 -5 22 -11 75 -14 118 -5 71 -4 77 14 77 10 0
22 -4 25 -10 3 -5 13 -10 21 -10 8 0 34 -9 56 -20 23 -11 48 -20 55 -20 7 0
21 -4 31 -9 23 -12 60 -26 102 -41 19 -7 44 -16 55 -20 11 -4 47 -18 80 -30
33 -12 69 -26 80 -30 11 -4 36 -13 55 -20 19 -7 44 -16 55 -20 11 -5 29 -11
40 -15 27 -9 8 -19 -78 -41 l-69 -18 7 -40 c3 -22 8 -42 10 -44 2 -2 60 17
128 43 69 26 135 45 148 43 43 -6 30 -26 -28 -43 -109 -32 -112 -35 -97 -92
10 -35 8 -36 247 57 45 18 83 18 72 -1 -3 -5 -23 -13 -44 -19 l-39 -10 10 -42
c5 -23 11 -44 13 -46 2 -3 45 12 95 32 49 20 97 36 105 36 19 0 101 -28 149
-51 22 -11 45 -19 51 -19 12 0 36 86 27 95 -3 3 -15 5 -27 5 -12 0 -29 6 -39
13 -33 24 8 29 60 7 25 -11 50 -20 55 -20 5 0 28 -8 52 -19 123 -53 134 -54
143 -7 8 44 1 54 -41 62 -20 3 -38 10 -41 15 -3 5 -15 9 -28 9 -12 0 -30 6
-40 13 -43 32 15 23 128 -20 65 -24 121 -42 123 -39 3 2 7 22 10 43 l5 38 -71
20 -70 19 32 14 c57 25 71 31 117 46 25 8 77 26 115 41 39 15 106 40 150 57
44 16 88 34 97 39 10 5 27 9 38 9 17 0 20 -7 20 -47 0 -26 -4 -72 -10 -102
-20 -114 -30 -294 -19 -338 12 -44 58 -101 99 -119 75 -35 213 -45 308 -23
112 25 140 32 196 51 91 31 209 89 338 165 126 76 175 99 185 89 3 -3 7 -18 8
-33 20 -264 22 -271 88 -310 71 -42 190 -59 308 -43 105 14 222 40 274 60 11
5 47 18 80 31 33 12 119 53 190 90 128 66 271 119 322 119 18 0 24 4 19 15 -4
10 1 15 16 15 18 0 19 2 7 16 -11 14 -10 18 6 30 10 8 34 14 52 14 27 0 35 -5
44 -27 5 -14 6 -29 2 -32 -20 -15 -9 -29 30 -41 98 -28 170 -107 204 -220 24
-83 8 180 -17 274 -55 205 -150 323 -315 393 -14 5 4 9 57 11 61 2 85 -1 120
-18 45 -21 90 -59 122 -104 47 -65 45 -64 45 -21 0 52 -25 229 -39 277 -14 49
-67 125 -110 160 -41 32 -104 50 -95 26 3 -8 -1 -21 -10 -28 -14 -11 -23 -11
-58 2 -27 10 -42 21 -41 32 1 9 -6 16 -15 16 -14 0 -14 2 -1 10 10 7 -11 10
-70 10 -93 0 -245 -31 -369 -74 -41 -14 -78 -26 -83 -26 -4 0 -8 20 -8 45 0
25 1 45 3 45 31 0 186 25 225 36 53 15 54 15 33 33 -12 10 -21 21 -21 23 0 3
35 11 78 18 93 15 459 134 569 185 17 8 33 15 36 15 8 0 273 113 360 154 84
40 106 58 30 25 -354 -154 -646 -269 -683 -269 -20 0 -80 46 -80 61 0 5 33 9
73 9 39 0 100 7 134 15 77 18 395 146 521 209 119 60 304 170 322 191 7 9 -24
-7 -71 -35 -159 -97 -520 -270 -563 -270 -12 0 -66 60 -66 73 0 3 26 8 58 12
67 8 224 47 279 70 100 41 417 250 637 418 98 76 309 262 366 323 44 48 43 47
-15 -7 -194 -180 -392 -338 -615 -491 -119 -82 -269 -168 -292 -168 -10 0 -24
14 -33 30 -18 34 -27 27 90 71 224 84 486 280 790 591 209 213 213 225 10 26
-282 -276 -491 -448 -546 -448 -10 0 -42 15 -71 32 l-53 33 42 7 c107 18 238
94 384 221 98 86 347 345 416 433 26 34 68 86 91 115 24 30 11 18 -29 -26 -40
-44 -166 -174 -279 -288 l-206 -208 -82 33 c-45 18 -82 36 -82 39 0 3 36 37
80 75 94 81 423 413 564 569 55 61 105 115 111 120 21 20 192 220 200 235 11
20 26 36 -262 -275 -362 -391 -701 -715 -748 -715 -23 0 -19 5 40 43 101 68
168 176 209 339 16 60 31 97 52 121 16 19 157 171 314 337 157 167 290 308
295 314 6 6 64 70 129 141 l119 130 -154 -155 c-85 -85 -289 -298 -453 -472
-235 -250 -304 -318 -323 -318 -44 0 -187 -41 -246 -70 l-58 -29 90 98 c190
207 523 588 590 676 24 32 -68 -64 -139 -145 -222 -255 -507 -557 -609 -647
l-59 -53 -20 58 -20 59 69 62 c117 105 333 356 494 571 67 91 35 57 -86 -90
-177 -216 -298 -344 -534 -565 -76 -71 -156 -152 -177 -179 -56 -71 -177 -176
-202 -176 -15 0 43 65 220 242 274 277 405 416 437 463 12 17 76 99 143 182
109 135 209 271 172 233 -8 -8 -75 -89 -149 -178 -74 -90 -151 -185 -172 -210
-58 -70 -259 -291 -309 -339 -38 -37 -47 -42 -72 -35 -29 8 -28 8 82 112 102
98 397 431 482 545 102 139 214 314 271 427 32 65 14 41 -52 -67 -150 -247
-453 -635 -495 -635 -14 0 -94 37 -94 44 0 1 41 34 92 71 122 92 230 202 299
306 188 283 430 764 543 1079 15 41 32 85 37 98 5 13 9 28 8 35 0 7 -7 -6 -16
-28 -9 -22 -38 -95 -64 -163 -55 -139 -66 -164 -155 -351 -147 -307 -357 -661
-394 -661 -5 0 -22 12 -40 26 l-31 26 48 52 c153 164 217 260 319 471 82 173
143 323 215 532 57 170 122 384 116 389 -2 2 -21 -51 -41 -119 -131 -420 -325
-874 -389 -909 -21 -11 -157 0 -157 13 0 5 6 9 13 9 16 0 126 114 165 171 80
118 172 331 246 570 41 135 136 505 152 594 13 75 -4 30 -39 -106 -46 -175
-113 -388 -184 -589 l-56 -160 -56 -1 c-31 0 -80 -4 -109 -8 -36 -5 -51 -4
-48 3 137 331 307 870 437 1387 59 238 79 342 33 174 -166 -600 -300 -1039
-376 -1235 -101 -262 -154 -368 -172 -349 -2 2 13 32 34 66 74 123 88 293 40
503 l-22 95 45 155 c25 85 62 211 82 280 20 69 70 238 110 375 129 441 186
647 181 653 -4 3 -6 2 -6 -1 0 -4 -43 -147 -96 -319 -52 -172 -110 -365 -129
-428 -146 -503 -208 -707 -218 -718 -14 -17 -52 -38 -43 -24 16 27 137 464
135 492 0 8 -9 -16 -20 -55 -77 -273 -135 -453 -152 -472 -20 -22 -44 -32 -32
-14 10 17 106 345 135 465 32 127 57 280 63 386 3 36 3 54 0 40 -2 -14 -13
-79 -24 -144 -27 -161 -80 -389 -119 -508 l-31 -98 -49 0 c-57 0 -61 8 -28 60
111 181 158 340 187 630 6 58 16 155 22 215 10 104 13 604 4 614 -3 2 -5 -83
-6 -190 -1 -317 -8 -385 -74 -636 -39 -149 -63 -223 -72 -223 -18 0 -16 21 7
79 67 171 97 427 86 726 -7 165 -28 422 -45 535 -15 97 -12 18 6 -141 11 -103
17 -247 17 -434 1 -325 3 -320 -86 -348 -30 -9 -58 -17 -62 -17 -3 0 5 22 19
50 81 160 91 433 30 855 -14 94 -38 233 -55 310 -32 151 -32 137 5 -115 23
-159 55 -478 55 -550 0 -34 -4 -37 -82 -78 -44 -23 -82 -41 -83 -40 -1 2 -8
82 -14 178 -13 202 -51 550 -87 795 -27 190 -82 515 -89 530 -6 13 -5 -1 50
-390 61 -444 83 -646 95 -890 10 -204 6 -265 -18 -273 -8 -2 -8 6 -1 30 35
123 -16 290 -141 464 l-59 81 -15 114 c-164 1212 -173 1272 -175 1230 -1 -21
44 -388 110 -888 l61 -462 -45 -88 c-47 -92 -87 -207 -87 -251 0 -56 -14 -7
-27 95 -18 147 -74 488 -128 781 -25 134 -45 248 -45 254 0 6 -2 9 -5 6 -3 -3
15 -128 39 -279 67 -411 122 -827 114 -865 -2 -11 -14 24 -26 76 -58 238 -172
602 -236 755 -31 74 -31 68 -2 -70 13 -60 23 -111 22 -112 -2 -2 -20 41 -40
95 -38 98 -149 328 -167 347 -6 5 12 -37 39 -95 101 -214 185 -448 212 -589
17 -88 18 -97 3 -114 -9 -9 -21 -16 -27 -14 -6 2 -16 -3 -22 -12 -9 -12 -13 6
-19 84 -9 128 -36 266 -71 358 -36 96 -203 424 -289 567 -97 162 -247 388
-290 435 l-36 40 41 -58 c65 -91 184 -276 261 -404 102 -173 259 -491 266
-541 5 -41 5 -42 -25 -48 -18 -4 -34 -7 -38 -8 -3 0 -16 40 -29 89 -32 125
-50 177 -98 275 -98 205 -323 530 -546 790 -138 162 -116 127 54 -85 194 -241
354 -475 410 -596 29 -65 26 -80 -29 -143 l-34 -39 -7 54 c-33 244 -250 562
-674 989 -85 85 -121 119 -80 75 206 -222 537 -632 527 -652 -22 -50 -92 -162
-98 -156 -4 4 -29 40 -56 78 -78 113 -206 278 -333 430 -89 107 -244 288 -252
295 -3 3 -39 43 -79 90 -41 47 -108 120 -149 163 -41 42 -78 83 -82 89 -5 7
-10 10 -12 8 -3 -3 42 -59 100 -125 310 -353 534 -621 654 -785 94 -128 199
-289 199 -305 0 -30 -15 -13 -44 48 -55 115 -180 212 -357 278 -54 19 -92 40
-109 59 -14 16 -70 82 -125 146 -55 64 -147 172 -205 239 -58 67 -166 193
-240 280 -74 87 -139 163 -145 169 -5 6 -50 57 -99 114 -48 56 -91 102 -94
102 -3 0 2 -8 10 -17 8 -10 58 -70 110 -133 164 -198 368 -441 462 -550 50
-58 112 -130 138 -160 25 -30 80 -94 120 -142 l75 -87 11 -109 c11 -98 36
-200 64 -257 9 -20 -16 6 -76 76 -163 190 -798 877 -740 799 10 -14 62 -72
114 -130 364 -400 760 -870 760 -902 0 -21 -50 -3 -85 31 -62 59 -205 181
-213 181 -4 0 19 -24 52 -53 42 -37 57 -58 55 -72 -4 -16 -15 -7 -61 49 -31
38 -56 72 -56 75 2 7 -289 299 -423 426 l-84 80 65 -70 c36 -38 67 -72 70 -75
3 -3 43 -45 90 -94 89 -92 86 -96 -17 -21 -104 76 -71 44 55 -53 64 -50 135
-112 157 -138 48 -58 48 -58 -95 55 -143 114 -251 186 -366 246 -103 53 -96
47 34 -31 179 -106 362 -245 362 -273 -1 -9 -6 -26 -13 -39 -13 -22 -14 -22
-67 40 -85 98 -138 145 -225 197 -98 60 -348 184 -473 236 l-92 38 6 36 7 36
-30 -28 c-26 -24 -33 -26 -57 -17 -38 14 -43 13 -20 -5 18 -14 17 -14 -16 -9
-19 3 -74 19 -122 35 -78 27 -89 29 -103 16 -21 -21 -19 -27 9 -27 19 0 23 -5
22 -27 -1 -20 -8 -30 -24 -35 -46 -13 -63 11 -58 79 2 28 -1 33 -26 38 -15 4
-44 1 -64 -5 -19 -7 -38 -9 -41 -6 -9 8 17 35 48 51 20 11 26 20 22 35 -3 11
-9 20 -14 20 -5 0 -9 5 -9 11 0 6 -7 17 -15 26 -8 8 -13 19 -10 24 4 5 1 9 -4
9 -6 0 -11 9 -11 21 0 15 -4 19 -16 15 -9 -3 -22 -6 -29 -6 -7 0 -27 -12 -44
-26 -28 -23 -31 -24 -31 -7 0 23 45 86 68 95 14 6 14 7 -4 7 -19 1 -71 49 -67
62 1 3 -14 14 -33 24 l-35 18 -39 -38 c-35 -34 -40 -36 -40 -18 0 23 23 80 42
103 7 9 45 37 85 62 92 61 118 97 117 163 0 29 -8 65 -19 85 l-19 35 -6 -42
c-9 -59 -38 -87 -161 -148 -58 -29 -111 -61 -119 -70 -12 -15 -11 -15 13 -4
21 10 30 9 44 -2 15 -11 16 -11 6 1 -20 22 -15 35 5 17 10 -10 22 -14 25 -10
4 3 7 1 7 -5 0 -7 6 -12 14 -12 19 0 30 -31 14 -42 -38 -25 -47 -28 -55 -15
-4 8 -16 17 -26 20 -10 4 -15 11 -12 17 3 5 0 7 -9 4 -8 -3 -23 -1 -33 4 -24
13 -44 -2 -71 -53 -17 -34 -21 -37 -28 -21 -4 11 -3 41 3 68 8 39 7 48 -3 44
-7 -3 -16 -1 -19 4 -4 6 -22 10 -41 10 -29 0 -33 3 -31 21 3 20 42 58 60 59 4
0 7 -6 5 -14 -3 -14 37 -56 53 -56 10 0 81 86 108 130 38 63 25 156 -29 205
l-22 20 7 -37 c10 -54 -16 -97 -103 -174 -129 -113 -119 -101 -97 -120 19 -15
19 -15 -8 -11 -15 2 -25 2 -22 -1 2 -3 -4 -11 -14 -19 -11 -7 -22 -31 -26 -53
-4 -22 -11 -40 -16 -40 -21 0 -24 108 -4 154 6 13 5 17 -2 13 -6 -4 -14 -1
-17 5 -3 7 -4 4 -1 -8 11 -44 -3 -55 -65 -53 -31 1 -62 -1 -68 -5 -6 -3 -14
-1 -18 5 -4 8 -3 9 4 5 8 -5 10 -1 5 10 -4 12 -3 15 6 10 6 -4 11 -4 10 1 -4
24 2 35 17 29 11 -4 15 -2 11 7 -3 8 0 14 6 14 7 0 20 4 30 8 12 5 17 3 15 -5
-5 -20 18 -23 36 -5 9 9 16 12 16 6 0 -6 6 -11 14 -11 19 0 66 121 66 171 0
22 -7 53 -15 69 -18 35 -95 97 -95 77z m170 -341 c0 -2 -6 -9 -14 -15 -11 -9
-16 -9 -22 0 -4 8 -3 9 4 5 7 -4 12 -2 12 3 0 6 5 11 10 11 6 0 10 -2 10 -4z
m120 -32 c0 -8 -19 -13 -24 -6 -3 5 1 9 9 9 8 0 15 -2 15 -3z m-173 -200 c42
-8 108 -31 146 -50 70 -34 171 -103 164 -110 -2 -3 -33 4 -68 13 -83 23 -305
26 -318 4 -5 -7 -13 -11 -19 -7 -6 3 -22 2 -36 -4 -23 -8 -25 -12 -14 -35 7
-17 19 -25 36 -25 14 0 36 -13 52 -30 15 -16 35 -30 44 -30 9 0 16 -4 16 -10
0 -5 -4 -10 -10 -10 -5 0 -10 -5 -10 -11 0 -6 7 -8 16 -5 8 3 12 2 9 -4 -3 -5
-3 -21 1 -35 4 -18 13 -25 30 -25 13 0 24 -4 24 -10 0 -5 -5 -10 -12 -10 -9 0
-9 -3 0 -12 7 -7 12 -42 12 -86 0 -65 -3 -77 -22 -94 -19 -16 -20 -21 -8 -28
8 -5 11 -13 6 -17 -5 -4 -11 -2 -13 5 -10 28 -25 10 -20 -25 2 -21 2 -30 0
-20 -5 22 -23 22 -23 1 0 -9 -8 -24 -18 -33 -10 -9 -21 -24 -25 -33 -3 -10
-13 -18 -22 -18 -18 0 -20 -16 -2 -23 6 -3 -3 -3 -20 0 -27 4 -33 2 -33 -11 0
-13 -5 -16 -20 -11 -13 4 -20 2 -20 -7 0 -7 -18 -21 -40 -30 -22 -9 -40 -12
-40 -7 0 5 -13 9 -30 9 -16 0 -30 -4 -30 -10 0 -5 -10 -10 -22 -10 -27 0 -98
31 -98 43 0 4 -7 16 -16 24 -12 12 -18 13 -23 4 -6 -9 -11 -8 -20 3 -7 8 -10
19 -8 23 8 13 -20 46 -32 38 -7 -3 -8 0 -5 9 5 12 -1 16 -25 16 -30 0 -31 2
-31 40 0 22 -4 40 -10 40 -5 0 -10 9 -10 20 0 11 -4 20 -10 20 -5 0 -10 -9
-10 -20 0 -11 -4 -20 -9 -20 -9 0 -26 -49 -51 -143 -19 -69 -8 -264 19 -347
11 -36 21 -67 21 -69 0 -16 -89 110 -119 169 -59 114 -85 232 -77 350 12 193
75 337 204 465 56 55 59 58 117 97 140 95 347 130 532 92z m-747 -40 c0 -8 -6
-11 -15 -8 -8 4 -15 15 -15 26 0 17 3 18 15 8 8 -7 15 -19 15 -26z m-251 -234
c11 -24 11 -24 -3 -6 -9 11 -16 24 -16 30 0 12 5 7 19 -24z m124 -156 c3 -13
-40 -17 -72 -6 -29 10 -66 -2 -56 -19 4 -5 3 -15 -2 -21 -10 -17 -11 -32 -1
-39 4 -3 2 -19 -4 -37 -15 -38 -12 -40 53 -62 59 -20 52 -32 -26 -40 l-50 -5
3 -37 c4 -42 -4 -46 -47 -23 -23 11 -27 19 -23 40 3 20 7 23 18 14 10 -8 17
-7 29 4 13 14 12 16 -17 22 -18 4 -38 13 -45 20 -10 11 -3 15 38 25 41 10 48
15 38 27 -7 7 -15 10 -18 5 -3 -5 -27 -14 -53 -21 -36 -10 -55 -11 -79 -2 -18
6 -52 11 -75 11 -45 0 -49 5 -38 47 4 16 22 27 67 42 79 27 84 27 114 -10 15
-17 32 -28 40 -25 8 3 11 2 8 -3 -3 -5 -1 -12 3 -15 5 -3 9 11 8 32 -1 29 -5
37 -18 36 -10 -1 -15 2 -12 7 3 5 13 8 22 7 12 -2 16 3 15 20 -2 12 1 22 5 22
67 5 104 9 108 13 8 7 65 -18 67 -29z m-311 9 c17 -16 13 -18 -95 -53 -151
-50 -247 -100 -312 -163 l-54 -52 -6 41 c-3 22 -3 49 1 59 9 23 165 96 313
146 64 21 120 39 125 39 5 0 18 -8 28 -17z m2344 -67 c180 -73 504 -244 504
-265 0 -5 -8 -19 -18 -31 l-17 -21 -79 65 c-102 84 -262 166 -468 239 -19 7
-14 37 6 37 7 0 39 -11 72 -24z m-371 -17 c-6 -19 -4 -21 14 -16 11 3 23 1 26
-3 3 -5 36 -12 74 -16 38 -3 73 -9 78 -13 6 -3 13 -39 17 -78 l6 -73 -52 20
c-57 22 -100 42 -108 50 -13 13 -52 30 -67 30 -11 -1 -6 -6 13 -14 38 -17 49
-32 29 -40 -24 -9 -18 -28 8 -21 17 5 19 4 7 -4 -8 -6 -15 -16 -16 -23 -2 -27
-17 -48 -34 -48 -26 0 -28 6 -32 90 -1 41 -7 78 -13 82 -5 4 -31 8 -57 8 -27
0 -48 4 -48 9 0 13 64 41 94 41 26 0 38 19 14 21 -7 1 1 5 17 9 17 4 31 8 33
9 2 0 0 -9 -3 -20z m339 -24 c99 -37 203 -92 210 -110 8 -21 8 -59 0 -79 -5
-13 -18 -6 -61 34 -49 45 -220 140 -252 140 -16 0 -13 11 7 26 22 17 19 18 96
-11z m-29 -195 c5 -8 3 -11 -6 -8 -8 3 -15 20 -16 44 -2 37 -1 37 6 8 4 -17
11 -37 16 -44z m-2375 52 c0 -5 -11 -14 -25 -20 -31 -14 -33 1 -2 16 28 14 27
13 27 4z m-140 -17 c19 11 17 -12 -2 -35 -12 -16 -18 -19 -14 -8 3 10 1 20 -4
23 -5 3 -6 13 -3 22 4 11 8 13 11 5 2 -7 8 -10 12 -7z m367 -62 c5 3 15 1 23
-4 12 -8 12 -12 3 -16 -20 -7 -15 -23 5 -17 14 5 15 4 2 -5 -26 -19 -76 8 -74
39 3 33 5 34 19 16 7 -10 18 -16 22 -13z m-666 -52 c-27 -52 -45 -63 -24 -14
8 21 20 49 26 63 8 20 11 21 14 8 2 -9 -5 -35 -16 -57z m-28 14 c-3 -9 -8 -14
-10 -11 -3 3 -2 9 2 15 9 16 15 13 8 -4z m2867 5 c0 -5 -2 -10 -4 -10 -3 0 -8
5 -11 10 -3 6 -1 10 4 10 6 0 11 -4 11 -10z m286 -32 c6 -24 15 -52 19 -63 8
-18 7 -18 -6 -5 -16 16 -39 73 -39 96 0 30 16 12 26 -28z m-4306 -6 c0 -5 -12
-15 -27 -23 -30 -15 -93 -76 -93 -90 0 -5 -4 -9 -10 -9 -18 0 -10 17 28 60 47
51 102 84 102 62z m3670 -22 c7 -16 17 -30 22 -30 5 0 5 -7 0 -17 -7 -11 -5
-21 4 -31 8 -7 14 -19 14 -25 0 -7 -5 -4 -11 6 -6 9 -15 15 -20 12 -5 -4 -7
-11 -4 -16 4 -5 0 -9 -8 -9 -23 0 -8 -51 26 -87 38 -40 22 -51 -42 -28 -53 18
-54 18 -48 1 3 -8 1 -17 -6 -20 -7 -2 -4 -5 6 -5 10 -1 15 -5 12 -11 -3 -5 -1
-10 5 -10 7 0 9 7 6 16 -4 11 -2 15 8 11 58 -23 248 -78 299 -88 34 -7 108
-27 165 -46 57 -18 113 -33 125 -33 30 0 48 -13 38 -28 -6 -9 -44 -2 -162 32
-309 89 -460 127 -479 121 -11 -4 -20 -15 -20 -26 0 -12 -7 -19 -20 -19 -23 0
-24 -4 -10 -30 7 -13 7 -21 0 -25 -5 -3 -10 -1 -10 4 0 6 -4 11 -10 11 -25 0
69 -129 117 -161 37 -25 117 -24 163 1 l35 19 -30 1 c-46 0 -91 34 -124 92
-17 29 -31 56 -31 59 0 10 780 -249 846 -281 34 -16 99 -42 145 -57 92 -29
110 -39 87 -48 -8 -3 -115 31 -239 76 -260 95 -460 162 -465 156 -2 -2 17 -11
43 -19 191 -62 624 -234 689 -273 29 -17 86 -46 128 -64 77 -34 88 -44 61 -55
-8 -3 -15 -10 -15 -16 0 -14 106 -82 199 -128 l73 -36 -28 -23 -28 -22 35 -31
c18 -17 69 -56 113 -87 l78 -56 -23 -18 -24 -18 30 -31 c105 -110 272 -205
362 -205 l53 0 60 -92 c33 -50 60 -97 60 -103 0 -19 40 -101 96 -197 30 -50
54 -94 54 -98 0 -3 -12 -5 -27 -3 -20 2 -29 -2 -31 -14 -4 -23 59 -180 119
-296 l49 -94 -43 4 -42 3 2 -46 c0 -26 20 -100 43 -165 60 -170 60 -164 16
-157 -43 7 -43 6 -21 -112 20 -111 38 -165 93 -275 31 -63 64 -112 97 -145
l50 -50 -12 -50 c-7 -27 -21 -116 -30 -197 l-17 -146 -29 24 c-16 13 -33 24
-38 24 -18 0 -48 -83 -81 -222 -18 -76 -36 -138 -41 -138 -5 0 -18 12 -30 26
l-20 26 -18 -33 c-69 -129 -108 -282 -111 -442 -3 -119 9 -150 82 -205 73 -55
73 -70 -1 -216 -35 -69 -67 -126 -70 -126 -4 0 -10 11 -13 25 -4 14 -13 25
-20 25 -31 0 -121 -123 -221 -302 -27 -49 -51 -88 -54 -88 -3 0 -14 18 -23 40
-9 22 -22 40 -29 40 -19 0 -96 -85 -190 -210 -46 -60 -86 -107 -90 -104 -5 3
-11 20 -15 39 -3 19 -11 35 -16 35 -23 0 -226 -219 -267 -288 -56 -94 -69
-143 -77 -305 -8 -171 -24 -211 -86 -227 -24 -5 -79 -24 -123 -40 -43 -16 -80
-28 -82 -26 -1 1 2 39 7 84 7 64 6 92 -6 132 -21 71 -102 149 -208 200 -77 37
-158 64 -127 42 7 -5 11 -14 7 -20 -3 -5 3 -12 14 -15 14 -4 18 -10 13 -23 -4
-11 -8 -13 -11 -6 -2 7 -12 12 -22 12 -10 0 -22 4 -25 10 -3 5 -19 10 -34 10
-15 0 -31 3 -35 7 -9 10 -78 33 -98 33 -10 0 -18 5 -18 10 0 6 -10 10 -23 10
-15 0 -24 6 -24 15 0 10 6 13 19 9 14 -4 18 0 17 18 0 13 -3 17 -6 11 -6 -15
-33 -17 -33 -3 0 6 6 10 13 11 21 1 -32 18 -134 44 -224 57 -647 107 -1074
126 -367 17 -856 -6 -1205 -57 -125 -18 -363 -64 -370 -71 -3 -3 10 -3 28 0
24 5 32 3 32 -8 0 -8 -8 -19 -17 -24 -17 -10 -16 -11 2 -12 11 -1 24 -1 28 0
5 1 5 -3 2 -9 -4 -6 -14 -9 -22 -6 -8 3 -26 -3 -41 -14 -42 -30 -191 -72 -177
-50 3 6 -1 10 -9 10 -9 0 -16 5 -16 11 0 5 4 8 9 5 14 -9 21 20 8 34 -9 10 -9
11 0 6 6 -3 14 -2 17 3 3 4 20 11 37 15 18 3 30 9 26 12 -10 10 -220 -67 -311
-114 -93 -49 -180 -124 -212 -182 -15 -28 -19 -54 -18 -133 2 -86 0 -97 -15
-93 -9 3 -43 14 -75 23 -58 18 -60 20 -78 68 -11 32 -17 81 -18 135 -1 143
-16 215 -62 302 -53 100 -170 234 -260 299 l-27 20 -12 -41 c-7 -22 -15 -40
-18 -40 -3 1 -42 49 -86 108 -93 124 -172 212 -192 212 -7 0 -20 -18 -29 -40
-18 -44 -29 -50 -39 -20 -10 32 -163 281 -202 327 -39 49 -59 54 -75 18 -6
-14 -14 -25 -17 -25 -3 1 -34 59 -69 130 -44 89 -62 135 -57 150 3 11 23 32
43 47 96 71 110 114 94 287 -7 67 -21 152 -32 188 -17 57 -75 196 -86 207 -2
3 -15 -6 -29 -19 -15 -14 -29 -20 -34 -14 -4 5 -20 61 -34 124 -29 134 -63
230 -81 230 -7 0 -21 -9 -31 -20 -34 -38 -42 -25 -50 78 -4 53 -16 142 -26
196 -11 55 -16 102 -11 105 60 40 132 151 184 282 28 69 58 207 58 265 0 32 0
33 -31 22 -16 -6 -32 -8 -35 -6 -2 3 16 63 41 134 30 84 47 148 48 184 l2 55
-37 -3 c-21 -2 -38 0 -38 3 0 3 24 54 54 113 68 135 106 228 106 259 0 19 -5
23 -30 23 -16 0 -30 3 -30 6 0 4 21 41 47 82 27 42 69 122 94 177 25 55 76
146 114 203 53 82 71 102 84 95 9 -4 39 -8 67 -8 74 0 199 65 298 157 42 38
76 73 76 78 0 4 -9 10 -20 13 -33 8 -24 22 43 65 34 23 84 61 112 85 l50 44
-31 19 -32 19 105 55 c58 30 122 69 142 87 35 31 36 32 16 47 -19 14 -19 15
20 31 84 35 147 65 173 83 30 22 140 70 252 112 41 15 118 43 170 63 52 19
145 53 205 76 61 22 105 40 99 40 -12 1 -310 -99 -429 -144 -38 -14 -106 -39
-150 -54 -44 -16 -87 -32 -96 -35 -9 -4 -21 0 -29 9 -10 12 -10 15 1 15 25 0
165 48 217 74 28 14 84 37 124 50 202 67 546 179 571 187 27 8 29 7 23 -16 -4
-14 -9 -46 -12 -73 -4 -40 -3 -44 7 -27 20 33 58 64 86 71 14 4 78 4 142 0
l116 -6 -27 24 c-16 13 -28 31 -28 40 0 11 -9 16 -27 17 l-28 1 30 10 c41 15
41 16 18 38 -12 10 -23 17 -25 15 -2 -3 -38 -9 -79 -15 -41 -6 -92 -20 -113
-31 -22 -11 -117 -44 -210 -73 -94 -29 -253 -79 -354 -111 l-182 -59 -20 20
-20 20 92 23 c51 13 120 36 153 51 83 38 861 258 872 246 8 -7 -47 -56 -63
-56 -8 0 -14 -7 -14 -15 0 -8 7 -15 15 -15 9 0 12 -6 8 -16 -4 -10 0 -22 9
-28 22 -16 39 -52 32 -69 -5 -13 1 -14 32 -7 20 5 50 18 66 30 28 21 28 21 28
0 0 -11 -16 -38 -35 -59 l-36 -39 36 -13 c19 -7 35 -18 35 -24 0 -6 13 -23 28
-38 l28 -26 31 19 c18 10 37 28 43 40 6 11 15 18 21 15 9 -6 2 -52 -11 -70 -4
-5 -10 -19 -14 -31 -5 -17 2 -25 48 -47 30 -15 60 -27 65 -27 6 0 11 -5 11
-10 0 -18 58 41 64 66 4 13 11 24 18 24 7 0 9 -20 5 -62 -3 -39 -2 -56 4 -47
7 11 9 11 9 -4 0 -10 4 -16 9 -12 5 3 12 1 16 -5 3 -5 23 -10 44 -10 20 0 42
-5 48 -11 14 -14 53 44 53 79 0 14 5 22 12 20 16 -6 29 -56 21 -86 -6 -24 -5
-24 58 -19 35 3 71 1 81 -4 23 -13 38 16 38 75 0 54 13 59 36 14 17 -32 16
-76 -2 -249 -10 -92 41 -164 131 -185 l30 -7 -30 32 c-41 44 -39 96 9 234 20
60 35 114 33 120 -3 7 -8 0 -12 -16 -6 -24 -10 -26 -23 -15 -13 11 -15 10 -9
-4 7 -19 1 -21 -45 -18 -16 1 -28 -2 -28 -7 0 -5 -6 -17 -12 -26 -11 -15 -13
-11 -15 25 -4 56 4 67 55 70 23 2 42 6 42 11 0 4 11 7 25 7 34 0 40 21 23 75
-12 36 -13 45 -2 45 14 0 50 -42 59 -70 6 -18 28 -21 42 -5 5 4 1 5 -7 0 -23
-13 -3 6 22 21 75 43 80 43 83 -5 1 -21 -2 -27 -14 -24 -10 2 -23 -8 -34 -28
l-17 -31 -20 24 c-18 22 -19 22 -20 3 l-1 -20 -9 20 c-6 13 -7 -1 -4 -40 17
-186 49 -234 169 -250 46 -6 49 -5 31 9 -11 9 -23 16 -28 16 -4 0 -15 15 -25
33 -15 27 -18 58 -18 207 0 164 -1 177 -22 211 -13 20 -23 39 -23 43 0 10 52
-19 77 -43 28 -26 43 -27 43 -2 0 10 12 27 27 37 48 31 82 84 54 84 -5 0 -13
9 -16 20 -4 11 -18 26 -32 34 -17 8 -22 16 -14 20 15 9 76 -11 92 -30 10 -12
15 -8 31 28 10 23 28 51 39 61 11 10 17 22 14 28 -4 5 -1 9 5 9 22 0 -23 50
-56 62 -19 6 -34 16 -34 20 0 11 83 10 112 -1 22 -8 23 -6 25 38 2 61 13 121
23 121 4 0 13 -13 20 -30z m1765 20 c4 -6 10 -8 14 -6 17 11 121 -107 107
-121 -3 -3 -7 -4 -9 -2 -39 56 -67 85 -105 109 -26 16 -39 30 -30 30 9 0 20
-5 23 -10z m-3460 -26 c-11 -8 -31 -18 -45 -20 -14 -3 -33 -18 -42 -34 -13
-23 -13 -28 -2 -23 8 3 14 -1 14 -11 0 -9 3 -16 8 -16 4 0 12 -16 18 -35 9
-27 8 -35 -3 -40 -28 -10 -83 31 -83 62 0 15 -2 16 -10 3 -11 -18 -17 -12 -24
24 -4 21 -2 26 9 22 8 -3 14 0 12 7 -1 7 8 12 21 11 12 0 22 3 22 8 0 4 -5 8
-12 8 -9 0 -9 3 0 13 14 13 84 35 117 36 l20 0 -20 -15z m2365 6 c0 -5 -2 -10
-4 -10 -3 0 -8 5 -11 10 -3 6 -1 10 4 10 6 0 11 -4 11 -10z m1038 -27 c-6 -7
-14 -10 -19 -7 -13 8 -11 32 4 37 17 6 28 -15 15 -30z m-5318 7 c0 -5 -9 -10
-20 -10 -11 0 -20 5 -20 10 0 6 9 10 20 10 11 0 20 -4 20 -10z m3339 -56 c-6
-21 -13 -51 -16 -66 -3 -16 -9 -28 -14 -28 -5 0 -9 -7 -9 -15 0 -22 -67 -123
-112 -168 -21 -21 -38 -43 -38 -48 0 -5 -7 -9 -15 -9 -8 0 -15 -4 -15 -10 0
-5 -7 -10 -15 -10 -8 0 -15 -4 -15 -8 0 -14 -116 -71 -149 -74 -17 -1 -31 -5
-31 -9 0 -4 -19 -10 -42 -13 -24 -3 -62 -8 -85 -12 -33 -5 -43 -3 -43 8 0 10
27 20 83 32 45 11 86 23 92 27 5 5 17 9 27 9 10 0 18 5 18 10 0 6 8 10 18 10
10 0 28 9 40 20 12 11 25 20 30 20 5 0 17 9 27 20 10 11 27 20 38 20 11 0 18
3 14 6 -8 8 18 34 34 34 7 0 9 3 6 7 -4 3 7 19 23 35 17 15 30 33 30 39 0 5
11 22 24 36 14 14 32 47 42 72 9 25 20 51 24 56 4 6 11 25 15 44 5 25 10 30
16 20 4 -8 3 -33 -2 -55z m-2529 -34 c-6 -11 -15 -18 -21 -15 -5 4 -2 19 8 36
20 34 32 15 13 -21z m3759 -65 c0 -18 -1 -17 -13 5 -7 14 -16 41 -19 60 l-6
35 19 -40 c11 -22 19 -49 19 -60z m-3789 75 c0 -5 -4 -10 -10 -10 -5 0 -10 5
-10 10 0 6 5 10 10 10 6 0 10 -4 10 -10z m278 -7 c-10 -2 -26 -2 -35 0 -10 3
-2 5 17 5 19 0 27 -2 18 -5z m-1477 -81 c20 -46 26 -142 9 -142 -5 0 -10 17
-10 38 0 20 -11 68 -24 105 -19 52 -21 65 -9 55 9 -7 24 -32 34 -56z m4059 48
c0 -5 -4 -10 -9 -10 -6 0 -13 5 -16 10 -3 6 1 10 9 10 9 0 16 -4 16 -10z m265
-2 c-34 -11 -46 -15 -60 -18 -5 -1 -18 -6 -27 -11 -12 -6 -18 -6 -18 0 0 17
53 39 95 39 40 0 40 0 10 -10z m1844 -10 c-7 -13 -14 -41 -15 -63 -2 -22 -9
-58 -17 -79 l-15 -40 -7 32 c-3 18 -3 47 0 65 8 38 45 107 57 107 5 0 3 -10
-3 -22z m-4008 -31 c-14 -7 -25 -6 -36 3 -26 21 -17 29 21 17 33 -10 35 -12
15 -20z m2645 18 c14 -11 15 -14 3 -9 -10 3 -39 9 -65 14 l-49 8 46 1 c27 1
53 -5 65 -14z m-506 -9 c0 -3 -4 -8 -10 -11 -5 -3 -10 -1 -10 4 0 6 5 11 10
11 6 0 10 -2 10 -4z m-2020 -21 c6 3 10 2 10 -3 0 -5 -46 -21 -102 -36 -57
-14 -168 -44 -248 -66 -295 -82 -345 -94 -365 -86 -15 7 0 14 67 31 48 12 116
32 150 43 35 11 98 28 142 37 43 10 129 34 190 55 79 26 116 35 129 28 9 -5
22 -6 27 -3z m-1310 -71 c-7 -25 -17 -47 -22 -51 -6 -3 -7 3 -3 17 10 32 13
51 15 85 0 26 2 28 11 12 8 -14 8 -31 -1 -63z m3730 66 c0 -5 -4 -10 -10 -10
-5 0 -10 5 -10 10 0 6 5 10 10 10 6 0 10 -4 10 -10z m-3030 -40 c13 -9 13 -10
0 -10 -8 0 -22 5 -30 10 -13 9 -13 10 0 10 8 0 22 -5 30 -10z m-1690 -14 c0
-3 -4 -8 -10 -11 -5 -3 -10 -1 -10 4 0 6 5 11 10 11 6 0 10 -2 10 -4z m940
-12 c0 -8 -4 -12 -10 -9 -5 3 -10 10 -10 16 0 5 5 9 10 9 6 0 10 -7 10 -16z
m3670 12 c0 -2 -9 -6 -20 -9 -11 -3 -18 -1 -14 4 5 9 34 13 34 5z m665 -101
c5 -14 5 -17 -2 -10 -18 17 -34 81 -26 101 6 14 9 8 14 -26 3 -25 10 -54 14
-65z m-655 75 c0 -5 -13 -10 -28 -10 -15 0 -33 -5 -40 -12 -6 -6 -14 -9 -18
-6 -7 8 46 37 69 38 9 0 17 -4 17 -10z m-274 -103 c159 -46 307 -93 329 -104
46 -23 160 -58 224 -68 l44 -7 -24 -19 c-13 -10 -29 -19 -35 -19 -7 0 -94 27
-195 60 -101 33 -288 92 -416 132 -178 55 -233 76 -236 90 -3 10 0 18 7 18 7
0 143 -38 302 -83z m-326 63 c0 -5 -2 -10 -4 -10 -3 0 -8 5 -11 10 -3 6 -1 10
4 10 6 0 11 -4 11 -10z m1300 0 c0 -5 -7 -10 -15 -10 -8 0 -15 5 -15 10 0 6 7
10 15 10 8 0 15 -4 15 -10z m-4895 -10 c-3 -5 -12 -10 -18 -10 -7 0 -6 4 3 10
19 12 23 12 15 0z m5340 0 c3 -5 2 -10 -4 -10 -5 0 -13 5 -16 10 -3 6 -2 10 4
10 5 0 13 -4 16 -10z m-4365 -26 c14 -7 20 -13 14 -14 -15 0 -84 29 -84 36 0
7 38 -5 70 -22z m-670 -48 c0 -24 -26 -54 -37 -42 -3 3 -1 6 5 6 7 0 12 15 12
36 0 21 4 33 10 29 6 -3 10 -17 10 -29z m245 24 c-3 -5 -14 -10 -23 -10 -15 0
-15 2 -2 10 20 13 33 13 25 0z m-45 -14 c0 -2 -7 -6 -15 -10 -8 -3 -15 -1 -15
4 0 6 7 10 15 10 8 0 15 -2 15 -4z m3940 -15 c-25 -11 -47 -17 -49 -15 -10 10
36 33 64 33 28 0 27 -1 -15 -18z m-4476 -10 c3 -5 -14 -12 -39 -15 -25 -4 -45
-12 -45 -17 0 -6 -9 -8 -19 -4 -11 3 -35 -3 -55 -14 -41 -23 -50 -10 -11 15
55 36 156 57 169 35z m616 -1 c0 -5 -4 -10 -10 -10 -5 0 -10 5 -10 10 0 6 5
10 10 10 6 0 10 -4 10 -10z m4878 -6 c46 -15 99 -50 90 -59 -3 -3 -19 2 -36
11 -21 10 -43 13 -62 9 -24 -5 -29 -4 -24 8 4 10 -6 16 -36 21 -23 3 -38 11
-35 16 9 14 50 12 103 -6z m-562 -19 c12 -8 25 -11 29 -7 5 4 5 2 1 -5 -5 -9
-16 -8 -44 4 -46 19 -51 23 -26 23 11 0 29 -7 40 -15z m204 -38 c0 -10 5 -15
10 -12 13 8 13 -6 0 -25 -9 -13 -11 -13 -20 0 -5 8 -10 31 -10 50 0 26 3 31
10 20 5 -8 10 -23 10 -33z m-282 11 c-6 -18 -28 -21 -28 -4 0 9 7 16 16 16 9
0 14 -5 12 -12z m-5489 -63 c13 -29 21 -63 20 -97 0 -60 -7 -50 -32 47 -8 33
-18 71 -23 84 -12 39 11 16 35 -34z m6682 3 c-23 -63 -36 -118 -32 -137 1 -7
-2 -10 -8 -6 -15 9 -13 72 3 118 12 33 42 77 52 77 2 0 -5 -24 -15 -52z
m-5266 11 c15 -15 -28 -10 -55 7 -25 15 -25 15 10 8 19 -3 39 -10 45 -15z
m1985 -19 c0 -12 -8 -12 -35 0 -18 8 -17 9 8 9 15 1 27 -3 27 -9z m1980 -19
c0 -5 -12 -11 -27 -14 -16 -3 -37 -9 -48 -12 -16 -6 -16 -3 5 14 25 21 70 29
70 12z m-5410 -32 c0 -5 -7 -9 -15 -9 -15 0 -20 12 -9 23 8 8 24 -1 24 -14z
m6730 12 c0 -6 -4 -13 -10 -16 -5 -3 -10 1 -10 9 0 9 5 16 10 16 6 0 10 -4 10
-9z m-5980 -40 c0 -6 -4 -13 -10 -16 -5 -3 -10 1 -10 9 0 9 5 16 10 16 6 0 10
-4 10 -9z m6450 -156 c58 -183 113 -377 156 -548 l37 -148 -28 -30 c-49 -50
-55 -42 -55 81 0 120 -7 164 -52 319 -28 100 -108 434 -108 454 0 23 11 -5 50
-128z m-1150 89 c0 -8 -4 -14 -10 -14 -5 0 -10 9 -10 21 0 11 5 17 10 14 6 -3
10 -13 10 -21z m-4840 -15 c0 -5 -13 -3 -30 6 -16 9 -30 17 -30 20 0 2 14 -1
30 -6 17 -6 30 -15 30 -20z m-450 8 c0 -2 -13 -16 -30 -32 -16 -16 -30 -25
-30 -21 0 4 12 18 26 31 25 24 34 29 34 22z m4874 -43 c-52 -25 -79 -31 -69
-14 9 15 65 37 94 37 18 0 11 -5 -25 -23z m412 -31 c-6 -6 -46 20 -46 30 0 4
11 0 25 -9 14 -9 24 -19 21 -21z m-5364 -15 c-7 -7 -12 -8 -12 -2 0 14 12 26
19 19 2 -3 -1 -11 -7 -17z m-618 -36 c-28 -27 -56 -63 -63 -80 -12 -28 -31
-44 -31 -25 0 20 65 111 93 130 53 36 54 26 1 -25z m283 42 c-3 -3 -12 -4 -19
-1 -8 3 -5 6 6 6 11 1 17 -2 13 -5z m6038 -4 c3 -5 -1 -10 -10 -10 -9 0 -13 5
-10 10 3 6 8 10 10 10 2 0 7 -4 10 -10z m245 0 c0 -5 7 -10 15 -10 24 0 106
-123 91 -137 -2 -2 -14 13 -26 34 -12 21 -43 57 -69 80 -32 30 -41 43 -28 43
9 0 17 -4 17 -10z m-6190 -9 c0 -5 -15 -12 -33 -15 -18 -3 -50 -15 -70 -25
-43 -22 -49 -12 -9 15 36 25 112 42 112 25z m5920 -9 c14 -5 32 -18 40 -28 13
-15 13 -17 0 -11 -8 3 -41 14 -72 24 -32 10 -58 22 -58 26 0 10 54 3 90 -11z
m226 -14 c-1 -13 -7 -23 -16 -23 -22 0 -24 32 -3 38 10 3 19 5 19 6 1 0 1 -9
0 -21z m-6416 -8 c0 -14 -15 -19 -29 -10 -17 10 -5 31 14 23 8 -3 15 -9 15
-13z m-369 -95 c27 -47 39 -115 21 -115 -5 0 -14 22 -20 49 -6 27 -25 73 -43
102 -26 45 -27 51 -9 34 12 -11 35 -42 51 -70z m7139 10 c-15 -31 -25 -66 -23
-79 3 -13 -2 -28 -11 -35 -14 -12 -16 -9 -16 27 0 38 23 93 53 127 24 28 23
14 -3 -40z m-6415 25 c-2 -11 -9 -28 -15 -37 -8 -14 -9 -12 -4 12 4 17 9 33
11 38 8 13 12 7 8 -13z m441 -5 c15 -11 16 -14 3 -15 -8 0 -24 7 -35 15 -15
11 -16 14 -3 15 8 0 24 -7 35 -15z m-476 -35 c0 -5 -5 -10 -11 -10 -5 0 -7 5
-4 10 3 6 8 10 11 10 2 0 4 -4 4 -10z m5360 -20 c-66 -24 -67 -24 -47 -2 9 10
33 18 59 19 l43 3 -55 -20z m430 -49 c-1 -13 -4 -12 -15 3 -8 11 -15 27 -15
35 1 13 4 12 15 -3 8 -11 15 -27 15 -35z m-6493 -23 c-3 -8 -6 -5 -6 6 -1 11
2 17 5 13 3 -3 4 -12 1 -19z m7150 0 c-3 -8 -6 -5 -6 6 -1 11 2 17 5 13 3 -3
4 -12 1 -19z m-6179 -78 c17 -11 32 -22 32 -25 0 -4 -3 -4 -7 -2 -5 2 -25 11
-45 21 -21 9 -38 19 -38 21 0 11 27 4 58 -15z m-535 -51 c-5 -5 -23 -9 -41
-11 -19 -1 -36 -6 -38 -10 -3 -4 -16 -8 -30 -8 -13 0 -24 -4 -24 -10 0 -5 -5
-10 -12 -10 -6 0 -3 9 7 20 10 11 24 20 30 20 7 0 25 6 39 14 27 14 84 10 69
-5z m5837 1 c-14 -11 -32 -20 -40 -20 -10 -1 -9 -4 5 -10 13 -6 15 -9 5 -9 -8
0 -21 3 -28 8 -16 10 4 28 45 41 40 12 41 12 13 -10z m525 -2 c14 -6 25 -15
25 -20 0 -4 6 -8 14 -8 8 0 17 -4 20 -9 3 -5 -22 0 -55 10 -33 10 -69 19 -79
19 -10 0 -22 5 -25 10 -9 14 68 13 100 -2z m-6215 -63 c-7 -9 -15 -13 -19 -10
-3 3 1 10 9 15 21 14 24 12 10 -5z m-749 -82 c40 -33 88 -163 61 -163 -4 0
-14 20 -21 45 -7 24 -26 65 -42 90 -31 49 -31 54 2 28z m7454 -64 c-19 -35
-35 -72 -35 -82 0 -10 -4 -16 -9 -13 -14 9 10 96 33 123 6 7 17 20 25 28 26
32 20 8 -14 -56z m-8061 14 c-10 -21 -20 -64 -22 -96 -5 -70 -22 -86 -22 -21
0 49 18 124 30 124 4 0 10 10 13 22 4 12 9 19 13 15 4 -3 -2 -23 -12 -44z
m8636 28 c0 -14 -6 -19 -20 -18 -33 2 -22 33 13 36 4 1 7 -8 7 -18z m69 -28
c26 -54 39 -137 22 -147 -7 -5 -11 4 -11 26 0 18 -11 63 -24 101 -28 77 -21
89 13 20z m-8629 22 c0 -8 -4 -15 -10 -15 -5 0 -10 7 -10 15 0 8 5 15 10 15 6
0 10 -7 10 -15z m1490 -20 c16 -19 1 -19 -24 0 -16 12 -17 15 -4 15 8 0 21 -7
28 -15z m5680 -35 c0 -5 -7 -10 -15 -10 -8 0 -15 -4 -15 -9 0 -5 -9 -11 -20
-14 -11 -3 -20 -2 -20 3 0 11 22 27 45 33 11 2 21 5 23 6 1 0 2 -3 2 -9z m860
-31 c0 -5 -7 -9 -15 -9 -15 0 -20 12 -9 23 8 8 24 -1 24 -14z m-7500 1 c0 -5
-5 -10 -11 -10 -5 0 -7 5 -4 10 3 6 8 10 11 10 2 0 4 -4 4 -10z m101 -127
c-17 -21 -31 -43 -31 -50 0 -7 -7 -13 -16 -13 -13 0 -12 6 7 38 23 39 59 76
67 68 2 -3 -10 -22 -27 -43z m379 36 c13 -9 13 -10 0 -8 -21 2 -60 -12 -60
-22 0 -4 -8 -7 -17 -7 -10 1 -30 -2 -45 -5 -16 -4 -28 -5 -28 -2 0 11 54 39
88 46 21 3 39 7 42 8 3 0 12 -4 20 -10z m184 -8 c3 -4 -29 -58 -71 -120 -60
-89 -81 -111 -99 -111 -13 0 -24 3 -24 6 0 4 74 98 90 114 3 3 23 31 44 63 39
56 50 65 60 48z m6459 -20 c20 -22 21 -23 2 -17 -11 4 -51 16 -90 27 l-70 19
68 -3 c55 -2 71 -7 90 -26z m263 6 c32 -37 73 -142 60 -154 -3 -3 -8 3 -11 13
-4 10 -11 27 -16 36 -5 10 -9 23 -9 29 0 6 -14 30 -30 55 -32 46 -28 61 6 21z
m-7196 -7 c0 -5 -7 -10 -15 -10 -8 0 -15 5 -15 10 0 6 7 10 15 10 8 0 15 -4
15 -10z m7110 0 c0 -5 -4 -10 -10 -10 -5 0 -10 5 -10 10 0 6 5 10 10 10 6 0
10 -4 10 -10z m-306 -188 l21 -24 -30 4 c-25 2 -39 17 -84 82 -39 57 -50 80
-41 86 9 5 29 -14 63 -59 27 -36 59 -77 71 -89z m-7354 133 c0 -8 -4 -15 -10
-15 -5 0 -7 7 -4 15 4 8 8 15 10 15 2 0 4 -7 4 -15z m8210 -6 c0 -6 -4 -7 -10
-4 -5 3 -10 11 -10 16 0 6 5 7 10 4 6 -3 10 -11 10 -16z m-7798 -44 c-2 -14
-8 -25 -13 -25 -10 0 -12 34 -2 43 13 14 20 6 15 -18z m-849 -37 c30 -16 84
-76 90 -100 5 -19 5 -19 -18 2 -13 13 -29 19 -36 15 -7 -5 -10 -3 -7 6 3 8
-12 31 -34 52 -39 37 -37 48 5 25z m9117 8 c0 -2 -16 -14 -35 -26 -20 -13 -35
-30 -35 -41 0 -12 -7 -19 -20 -19 -10 0 -23 -8 -29 -17 -5 -10 -13 -15 -16
-11 -11 11 28 66 66 93 30 21 69 33 69 21z m-8679 -37 c-17 -17 -27 -37 -24
-45 3 -10 0 -12 -10 -9 -14 6 -50 -29 -60 -58 -2 -7 -8 -8 -13 -4 -16 15 38
90 96 130 38 26 43 20 11 -14z m209 0 c0 -6 -4 -7 -10 -4 -5 3 -10 11 -10 16
0 6 5 7 10 4 6 -3 10 -11 10 -16z m7800 17 c0 -2 -7 -9 -15 -16 -13 -11 -14
-10 -9 4 5 14 24 23 24 12z m229 -33 c22 -21 48 -56 57 -78 l15 -40 -23 29
c-13 15 -42 49 -65 74 -24 25 -43 46 -43 48 0 12 23 -1 59 -33z m-7979 -38
c13 -21 19 -43 15 -52 -5 -15 -7 -15 -16 -3 -8 13 -10 13 -18 1 -6 -9 -9 3 -9
37 -1 29 1 52 3 52 2 0 13 -16 25 -35z m7697 -19 c-1 -33 -5 -42 -14 -35 -8 7
-13 4 -17 -8 -3 -10 -3 -1 -1 20 3 33 19 67 30 67 2 0 3 -20 2 -44z m273 4 c0
-5 -4 -10 -10 -10 -5 0 -10 5 -10 10 0 6 5 10 10 10 6 0 10 -4 10 -10z m-7530
-111 c0 -5 -15 -9 -32 -9 -18 -1 -51 -7 -73 -15 -37 -13 -56 -13 -42 1 3 4 30
14 59 24 52 17 88 16 88 -1z m6909 -9 c56 -26 49 -34 -11 -15 -36 10 -48 11
-52 2 -5 -9 -7 -9 -12 1 -3 6 -12 12 -19 12 -8 0 -17 5 -20 10 -11 18 68 10
114 -10z m1307 -192 c-38 -293 -47 -338 -75 -338 -17 0 -17 6 6 98 13 53 33
139 45 190 23 98 33 119 24 50z m-9586 -168 c17 -74 34 -143 36 -152 4 -13 0
-18 -15 -18 -14 0 -22 8 -27 28 -3 15 -8 34 -10 42 -7 29 -34 244 -33 269 1
25 1 25 9 -4 4 -16 22 -91 40 -165z m223 128 c38 -26 52 -42 73 -83 15 -29 14
-28 -25 10 -22 21 -42 36 -42 32 -1 -4 -3 -11 -4 -17 -1 -5 -3 -13 -4 -17 -1
-5 -5 -2 -10 6 -7 10 -4 19 6 27 15 10 13 13 -10 29 -15 9 -27 21 -27 26 0 14
9 11 43 -13z m458 -15 c-17 -21 -40 -49 -51 -63 l-20 -25 7 34 c4 25 3 32 -5
27 -7 -4 -12 -3 -12 3 0 16 18 22 23 9 4 -9 8 -10 14 -3 10 13 64 55 70 55 2
0 -10 -17 -26 -37z m8180 13 c17 -14 36 -22 47 -19 12 3 22 -2 26 -12 5 -13 2
-15 -15 -10 -19 6 -20 5 -9 -15 21 -40 4 -44 -20 -4 -14 21 -35 49 -49 62 -32
30 -16 28 20 -2z m489 19 c0 -3 -12 -16 -27 -29 l-27 -23 23 -8 c18 -5 20 -10
10 -21 -12 -15 -33 -9 -24 7 12 18 -14 8 -46 -18 l-32 -27 17 31 c21 42 106
112 106 88z m-8526 -86 c-8 -13 -24 -1 -24 18 0 13 3 13 15 3 8 -7 12 -16 9
-21z m7903 9 c-3 -8 -6 -5 -6 6 -1 11 2 17 5 13 3 -3 4 -12 1 -19z m-7856 -67
c-6 -11 -11 -44 -12 -73 -1 -42 -2 -48 -9 -27 -8 27 3 120 17 141 12 21 16
-18 4 -41z m7814 -33 c4 -27 3 -54 -2 -59 -5 -5 -10 7 -11 31 -2 23 -7 52 -12
66 -14 36 -12 52 4 31 8 -10 17 -41 21 -69z m-7395 12 c0 -10 -37 -20 -73 -20
-16 0 -37 -5 -49 -11 -38 -20 -29 -1 11 23 28 17 51 23 76 20 19 -2 35 -8 35
-12z m7072 -12 c43 -25 44 -32 2 -19 -16 5 -50 12 -76 16 -48 6 -63 20 -30 28
28 6 64 -3 104 -25z m715 7 c7 -20 -2 -29 -21 -22 -9 4 -13 13 -10 22 8 19 23
19 31 0z m-8673 -55 c-8 -30 -14 -76 -12 -103 3 -48 -5 -63 -15 -27 -10 38 0
125 17 158 24 46 27 37 10 -28z m84 42 c2 -7 -3 -12 -12 -12 -9 0 -16 7 -16
16 0 17 22 14 28 -4z m8657 -28 c16 -40 20 -131 6 -153 -6 -9 -11 15 -14 65
-2 44 -8 89 -12 102 -12 36 3 25 20 -14z m-8906 -244 c12 -6 21 -18 21 -26 0
-13 -5 -12 -27 4 -16 11 -45 25 -65 33 -21 7 -38 16 -38 20 0 8 78 -14 109
-31z m432 -2 c-18 -18 -39 -46 -47 -61 -9 -16 -17 -27 -20 -25 -6 7 19 68 28
68 4 0 8 7 8 15 0 13 50 48 59 40 2 -2 -11 -19 -28 -37z m8200 23 c16 -8 31
-27 37 -47 5 -19 9 -34 8 -34 -2 0 -22 23 -46 51 -24 29 -39 50 -34 48 5 -3
21 -11 35 -18z m499 1 c0 -6 -31 -25 -82 -50 -5 -2 -8 2 -8 8 0 6 19 20 43 30
49 23 47 22 47 12z m-942 -129 c52 -29 54 -37 5 -16 -27 11 -42 12 -54 5 -13
-8 -24 -5 -48 13 -58 42 21 41 97 -2z m-7203 17 c-3 -5 -13 -10 -21 -10 -8 0
-13 -3 -13 -7 3 -19 -2 -33 -12 -33 -6 0 -8 8 -4 19 5 17 2 18 -27 12 -18 -5
-44 -11 -58 -16 -34 -10 -22 1 26 25 41 20 120 28 109 10z m-425 -238 c0 -4
-9 -13 -20 -20 -11 -7 -20 -16 -20 -21 0 -5 -13 -23 -30 -41 -17 -18 -30 -26
-30 -18 0 21 49 88 65 88 8 0 15 5 15 10 0 6 5 10 10 10 6 0 10 -3 10 -8z
m7971 -11 c28 -14 76 -88 64 -99 -3 -3 -9 -1 -13 5 -15 24 -58 77 -77 96 -21
20 -17 20 26 -2z m-8466 -81 c20 0 66 -30 60 -40 -5 -8 -114 41 -114 53 -1 4
8 3 18 -3 11 -5 27 -10 36 -10z m8974 6 c-2 -2 -28 -15 -57 -30 -46 -22 -53
-24 -50 -8 2 10 22 23 53 33 44 14 67 17 54 5z m-8334 -66 c3 -5 3 -15 -1 -21
-6 -11 -23 6 -24 24 0 10 18 9 25 -3z m255 -9 c0 -11 -35 -22 -78 -24 -37 -2
-42 10 -9 23 29 11 87 12 87 1z m7228 0 c23 -1 12 -21 -12 -21 -14 0 -28 -5
-31 -10 -7 -11 -54 18 -55 33 0 5 19 6 43 3 23 -3 48 -5 55 -5z m609 -23 c-3
-8 -6 -5 -6 6 -1 11 2 17 5 13 3 -3 4 -12 1 -19z m183 8 c0 -16 -18 -31 -27
-22 -8 8 5 36 17 36 5 0 10 -6 10 -14z m-8878 -11 c0 -5 -5 -11 -11 -13 -6 -2
-11 4 -11 13 0 9 5 15 11 13 6 -2 11 -8 11 -13z m8715 -94 c-5 -55 -23 -108
-33 -98 -3 3 0 33 7 68 15 82 17 89 25 89 4 0 4 -26 1 -59z m-8555 -36 c3 -33
4 -50 1 -37 -2 12 -8 20 -12 17 -10 -6 -22 72 -14 92 10 25 20 -4 25 -72z
m9012 -12 c4 -9 3 -20 -1 -24 -13 -13 -37 7 -30 25 8 21 23 20 31 -1z m-9456
-18 c-3 -3 -13 -2 -22 1 -14 5 -15 9 -4 15 13 8 36 -6 26 -16z m-63 -190 l17
-40 -21 19 c-24 21 -29 36 -40 107 -5 33 -5 66 2 88 11 34 11 32 18 -49 4 -47
15 -103 24 -125z m9589 169 c14 -55 -27 -204 -56 -204 -5 0 -6 6 -1 13 20 31
33 88 33 150 0 68 12 89 24 41z m-888 -41 c30 -22 64 -69 64 -87 0 -3 -25 19
-55 49 -30 30 -55 57 -55 60 0 10 12 4 46 -22z m-7826 2 c0 -8 -13 -21 -30
-30 -16 -8 -37 -29 -46 -46 -17 -33 -30 -33 -19 0 7 22 72 91 86 91 5 0 9 -7
9 -15z m-495 -236 c-18 -51 -18 -49 0 -49 8 0 15 -9 15 -20 0 -22 -26 -28 -33
-7 -5 14 -27 -58 -27 -91 0 -42 -16 -14 -18 31 -3 50 21 120 51 155 11 12 22
22 23 22 2 0 -3 -19 -11 -41z m8825 -32 c15 -34 20 -64 18 -105 -4 -64 -10
-56 -28 38 -6 35 -20 81 -30 102 -17 35 -17 36 1 25 10 -6 28 -33 39 -60z
m-30 -43 c0 -8 -4 -14 -9 -14 -11 0 -22 26 -14 34 9 9 23 -3 23 -20z m-8152
-59 c-6 -14 -17 -25 -23 -25 -11 0 -32 -23 -55 -60 -5 -8 -12 -12 -15 -9 -7 8
16 59 27 59 4 0 8 6 8 13 0 10 43 40 67 46 2 1 -3 -10 -9 -24z m7540 -2 c22
-19 66 -93 59 -99 -2 -3 -15 11 -28 31 -13 19 -28 35 -32 35 -5 0 -5 4 -2 10
3 5 0 8 -7 5 -7 -3 -19 4 -26 15 -10 16 -10 20 2 20 7 0 23 -8 34 -17z m-8539
-58 c42 -26 69 -55 52 -55 -6 0 -11 4 -11 9 0 18 -55 20 -68 3 -11 -14 -14
-15 -21 -3 -5 8 -7 20 -4 27 3 9 -15 16 -57 25 -42 8 -57 15 -48 21 21 14 118
-2 157 -27z m9638 21 c-9 -7 -35 -16 -57 -20 -31 -5 -38 -10 -33 -23 5 -13 2
-15 -20 -9 -17 4 -38 1 -57 -9 -38 -19 -39 -3 -2 22 55 38 92 50 152 52 31 0
33 -1 17 -13z m-8960 -81 c0 -8 -4 -15 -9 -15 -10 0 -11 14 -1 23 9 10 10 9
10 -8z m-106 -148 c-5 -7 -16 -43 -23 -80 -13 -71 -25 -85 -30 -39 -2 19 -8
26 -20 24 -10 -2 -18 1 -18 6 0 16 13 22 26 11 9 -7 15 -1 25 28 15 48 42 89
47 74 2 -6 -1 -17 -7 -24z m8384 -31 c15 -36 21 -125 8 -112 -4 4 -8 13 -8 19
-2 29 -19 94 -31 119 -8 15 -14 30 -14 33 0 15 32 -27 45 -59z m-544 -93 c25
-37 42 -73 35 -73 -2 0 -15 18 -30 41 -20 30 -33 39 -49 37 -16 -2 -21 2 -19
14 1 9 -2 19 -8 23 -5 3 -10 11 -10 16 0 20 57 -21 81 -58z m-7265 30 c-6 -12
-16 -23 -23 -23 -7 0 -24 -16 -39 -35 -34 -45 -44 -38 -14 10 27 44 55 72 73
72 11 0 11 -6 3 -24z m7866 3 c7 4 8 2 4 -5 -6 -9 -11 -9 -22 0 -7 6 -11 16
-7 23 5 7 9 5 11 -7 2 -9 8 -14 14 -11z m-8880 -137 c21 -5 53 -24 71 -40 l32
-30 -30 14 c-29 14 -105 38 -169 52 -24 5 -27 8 -15 16 14 10 43 7 111 -12z
m9348 11 c12 -8 12 -10 -5 -10 -26 0 -136 -35 -176 -55 -29 -15 -30 -15 -21 2
24 43 165 87 202 63z m-9050 -50 c0 -11 -7 -20 -15 -20 -15 0 -21 21 -8 33 12
13 23 7 23 -13z m8660 -21 c0 -19 -1 -19 -16 -5 -8 9 -12 20 -9 26 9 15 25 2
25 -21z m-8966 15 c13 -5 14 -9 5 -20 -13 -16 -29 -9 -29 12 0 16 2 16 24 8z
m9263 -21 c-3 -3 -11 -2 -17 2 -9 6 -9 10 1 16 14 8 27 -7 16 -18z m-8981
-170 c19 -34 21 -41 8 -36 -23 9 -74 121 -74 164 0 61 14 53 28 -18 7 -37 24
-87 38 -110z m8741 114 c-5 -51 -33 -116 -63 -147 -13 -13 -14 -13 -8 5 4 11
16 35 26 53 10 18 21 57 24 87 4 30 11 55 17 55 6 0 8 -21 4 -53z m-8392 -81
c-8 -25 -19 -54 -24 -65 -6 -11 -11 -31 -11 -45 0 -14 -4 -26 -10 -26 -12 0
-13 55 -1 96 7 25 47 84 57 84 1 0 -4 -20 -11 -44z m8019 -15 c11 -23 16 -54
14 -82 -3 -42 -4 -43 -12 -14 -4 17 -10 37 -14 45 -3 8 -11 34 -17 56 -15 54
5 50 29 -5z m-7404 34 c0 -4 -55 -58 -84 -83 -23 -19 -21 7 4 36 21 26 80 60
80 47z m6819 -31 c40 -33 44 -66 5 -35 -15 11 -31 18 -37 14 -5 -3 -7 -1 -3 5
3 6 2 13 -4 17 -13 8 -13 25 -1 25 5 0 23 -12 40 -26z m191 -124 c0 -5 -2 -10
-4 -10 -3 0 -8 5 -11 10 -3 6 -1 10 4 10 6 0 11 -4 11 -10z m-7240 -4 c0 -2
-7 -7 -16 -10 -8 -3 -12 -2 -9 4 6 10 25 14 25 6z m-811 -91 c30 -8 64 -24 75
-36 l21 -22 -23 6 c-17 4 -22 2 -18 -8 2 -7 -2 -16 -11 -19 -12 -5 -14 -1 -11
19 4 20 0 26 -26 34 -17 6 -60 12 -95 13 -61 2 -63 3 -35 15 38 16 58 16 123
-2z m8938 9 c35 -10 17 -24 -30 -24 -58 0 -125 -19 -106 -30 20 -13 4 -23 -23
-14 -13 4 -26 7 -30 6 -4 -1 -5 4 -2 12 5 14 115 55 149 55 11 1 30 -2 42 -5z
m-733 -156 c9 -45 7 -78 -4 -78 -5 0 -10 8 -10 18 0 9 -11 49 -24 87 l-24 70
28 -33 c15 -19 31 -47 34 -64z m-7530 40 c-1 -23 -7 -44 -13 -46 -6 -2 -11
-13 -11 -25 0 -12 -4 -28 -9 -36 -15 -23 -23 22 -11 55 6 16 11 30 11 32 -2 3
29 62 32 62 2 0 2 -19 1 -42z m-124 -237 c0 -14 -28 -33 -39 -27 -16 10 -1 36
20 36 10 0 19 -4 19 -9z m7780 -9 c0 -14 -11 -21 -26 -15 -8 3 -11 9 -8 14 7
11 34 12 34 1z m-8020 -33 c44 -10 96 -37 87 -45 -2 -2 -23 3 -47 11 -23 8
-76 15 -118 15 -79 0 -88 8 -25 20 53 11 53 11 103 -1z m175 -49 c9 -28 32
-73 51 -101 32 -46 33 -49 10 -34 -31 20 -56 57 -78 115 -20 50 -22 70 -9 70
5 0 17 -23 26 -50z m7880 -26 c-9 -24 -21 -44 -26 -44 -5 0 -9 -5 -9 -12 0
-15 -50 -68 -64 -68 -6 0 -2 7 8 15 11 8 16 15 11 15 -5 0 3 12 17 28 14 15
33 49 42 76 22 64 30 76 34 52 2 -10 -4 -38 -13 -62z m295 66 c10 -7 -8 -10
-61 -10 -45 0 -91 -6 -112 -15 -55 -23 -67 -17 -22 10 33 20 53 25 110 25 39
0 77 -5 85 -10z m-715 -113 c4 -24 5 -56 3 -73 -4 -23 -6 -19 -13 24 -4 29
-14 60 -22 67 -7 8 -16 29 -19 47 l-6 33 26 -27 c14 -16 27 -46 31 -71z
m-7005 70 c0 -7 -6 -21 -14 -32 -7 -11 -17 -39 -21 -62 -4 -24 -12 -46 -17
-50 -16 -9 -3 89 17 126 16 32 35 41 35 18z m-630 -31 c0 -9 -7 -12 -20 -9
-11 3 -17 9 -14 14 8 14 34 10 34 -5z m8235 4 c-3 -5 -12 -7 -20 -3 -21 7 -19
13 6 13 11 0 18 -4 14 -10z m-8254 -284 c-16 -7 -31 1 -85 49 -37 32 -66 59
-66 60 0 2 39 -20 86 -48 75 -45 83 -53 65 -61z m8368 78 c-54 -58 -96 -85
-120 -76 -21 8 -19 11 31 36 29 15 65 36 79 46 36 27 39 25 10 -6z m-7409 -80
c-6 -14 -7 -31 -3 -37 3 -7 2 -9 -2 -4 -10 8 -35 -57 -35 -90 0 -13 -5 -23
-11 -23 -22 0 -1 108 27 146 32 41 37 43 24 8z m6349 7 c11 -11 24 -28 28 -38
14 -27 16 -93 4 -93 -6 0 -11 6 -11 13 0 7 -11 41 -24 75 -14 34 -23 62 -20
62 2 0 13 -9 23 -19z m-6951 -35 c9 -10 13 -16 7 -15 -31 5 -54 -2 -49 -16 4
-10 0 -15 -16 -15 -17 0 -20 4 -15 20 6 18 0 19 -67 22 -66 3 -71 4 -48 16 37
18 167 10 188 -12z m7748 2 c11 -11 -8 -13 -101 -13 -72 0 -114 4 -112 10 9
26 188 29 213 3z m-138 -36 c2 -7 -3 -12 -12 -12 -9 0 -16 7 -16 16 0 17 22
14 28 -4z m870 -67 c-3 -3 -13 -2 -22 1 -14 5 -15 9 -4 15 13 8 36 -6 26 -16z
m-9378 5 c0 -5 -9 -10 -20 -10 -11 0 -20 5 -20 10 0 6 9 10 20 10 11 0 20 -4
20 -10z m7890 -20 c0 -5 -2 -10 -4 -10 -3 0 -8 5 -11 10 -3 6 -1 10 4 10 6 0
11 -4 11 -10z m-7632 -25 c-3 -3 -9 2 -12 12 -6 14 -5 15 5 6 7 -7 10 -15 7
-18z m8824 3 c-7 -7 -12 -8 -12 -2 0 14 12 26 19 19 2 -3 -1 -11 -7 -17z
m-9122 -46 c0 -8 14 -27 30 -44 17 -17 29 -33 26 -35 -13 -13 -96 100 -96 130
1 16 39 -34 40 -51z m9435 2 c-10 -19 -22 -31 -26 -28 -5 3 1 23 14 44 26 47
38 31 12 -16z m-9055 -23 c0 -22 5 -43 12 -47 6 -4 8 -3 4 4 -3 6 -2 13 3 16
17 11 21 -12 5 -28 -13 -13 -14 -22 -5 -48 14 -40 14 -43 -4 -28 -8 7 -15 21
-15 31 0 10 -4 21 -10 24 -5 3 -10 31 -10 61 0 30 5 54 10 54 6 0 10 -18 10
-39z m8670 -40 c-15 -82 -46 -128 -34 -51 4 27 3 40 -5 40 -6 0 -11 7 -11 15
0 18 16 20 23 3 3 -7 8 7 12 31 6 31 10 39 16 28 5 -8 5 -38 -1 -66z m-914 2
c-10 -10 -19 5 -10 18 6 11 8 11 12 0 2 -7 1 -15 -2 -18z m1259 8 c-3 -6 -16
-16 -28 -22 -21 -11 -21 -10 2 15 23 25 40 29 26 7z m-8095 -4 c0 -22 -11 -27
-26 -12 -19 19 -18 25 6 25 11 0 20 -6 20 -13z m550 -22 c-7 -20 -6 -25 5 -25
8 0 15 -6 15 -13 0 -21 -12 -28 -26 -16 -16 13 -19 7 -29 -55 -4 -27 -10 -35
-17 -28 -21 21 25 162 53 162 5 0 4 -11 -1 -25z m5747 -25 c23 -44 31 -120 13
-120 -5 0 -10 10 -10 23 0 41 -12 66 -33 69 -11 2 -22 9 -25 16 -2 7 0 12 5
11 19 -3 22 2 13 27 -17 43 11 24 37 -26z m-6297 -71 c0 -3 27 -23 60 -43 33
-21 60 -39 60 -41 0 -10 -69 21 -108 49 -42 30 -82 81 -82 106 0 13 69 -58 70
-71z m6880 53 c0 -24 -120 -127 -140 -120 -6 2 14 21 44 43 30 22 61 50 67 62
12 22 29 31 29 15z m-7344 -30 c-4 -3 -14 2 -24 12 -16 18 -16 18 6 6 13 -6
21 -14 18 -18z m7764 13 c-7 -9 -15 -13 -19 -10 -3 3 1 10 9 15 21 14 24 12
10 -5z m-7416 -12 c4 -5 -19 -13 -51 -20 -32 -6 -60 -10 -61 -8 -2 2 9 10 25
19 30 16 75 21 87 9z m7123 -5 c34 -12 47 -33 16 -24 -10 2 -37 8 -61 11 -23
4 -40 11 -36 16 7 12 41 11 81 -3z m433 -88 c0 -14 -9 -43 -20 -65 -12 -23
-18 -30 -14 -15 3 14 8 49 11 78 6 54 23 55 23 2z m-8027 -87 c5 -8 3 -13 -3
-13 -6 0 -13 7 -16 15 -4 8 -14 15 -23 15 -12 0 -13 2 -3 9 8 4 13 14 12 22
-1 8 -1 30 0 49 2 30 4 26 14 -25 6 -33 15 -66 19 -72z m-478 37 c4 -6 -7 -10
-24 -10 -21 0 -31 -5 -31 -15 0 -8 -4 -15 -10 -15 -5 0 -10 5 -10 11 0 8 -14
10 -45 6 -50 -7 -59 3 -17 20 35 14 129 16 137 3z m9072 -2 c18 -7 33 -16 33
-21 0 -5 -8 -6 -17 -2 -10 4 -49 10 -86 13 -43 3 -64 8 -55 13 19 13 87 11
125 -3z m-552 -18 c3 -5 1 -10 -4 -10 -6 0 -11 5 -11 10 0 6 2 10 4 10 3 0 8
-4 11 -10z m-1509 -61 c16 -31 19 -69 5 -69 -5 0 -11 11 -15 23 -3 13 -16 29
-28 35 -13 6 -17 11 -10 11 8 1 10 9 6 29 -7 25 -6 26 10 13 10 -8 24 -27 32
-42z m-5040 26 c-3 -8 2 -19 12 -24 16 -10 16 -10 -1 -11 -10 0 -26 -13 -35
-30 -9 -16 -21 -30 -25 -30 -12 0 2 60 19 88 16 24 39 30 30 7z m1924 -85 c0
-16 -7 -20 -35 -20 -31 0 -35 -3 -35 -25 0 -22 4 -25 35 -25 27 0 35 -4 35
-18 0 -15 -6 -18 -30 -14 -30 4 -30 4 -30 -43 l0 -47 31 6 c25 5 30 3 27 -12
-2 -13 -15 -18 -50 -20 -54 -4 -52 -9 -63 145 l-6 82 38 4 c81 8 83 8 83 -13z
m-2955 -12 c14 -6 25 -19 25 -30 0 -27 -16 -22 -40 12 -24 33 -22 35 15 18z
m2785 -2 c0 -14 -29 -26 -68 -26 -18 0 -22 -4 -18 -17 3 -10 8 -55 12 -100 6
-79 6 -83 -14 -83 -24 0 -28 12 -37 105 -3 39 -8 82 -11 97 -6 30 5 34 89 37
34 1 47 -3 47 -13z m4304 2 c-13 -23 -37 -48 -46 -48 -18 0 -7 38 15 48 30 15
40 14 31 0z m-6683 -9 c61 -21 51 -25 -61 -25 -60 0 -107 3 -104 6 5 4 90 25
120 29 6 0 26 -4 45 -10z m6864 -57 c-4 -20 -14 -45 -22 -56 -13 -18 -14 -18
-9 -3 3 10 9 44 13 74 4 42 8 51 15 38 6 -9 7 -33 3 -53z m-7451 -15 c7 -57
-8 -55 -25 3 -13 42 -5 88 10 60 5 -8 11 -37 15 -63z m6971 64 c22 -5 38 -10
35 -11 -15 -6 -219 -5 -213 1 20 18 112 23 178 10z m-2632 -8 c3 -5 -1 -48 -9
-97 -16 -96 -13 -106 32 -106 20 0 23 9 35 93 13 83 16 92 37 95 26 4 26 4 8
-108 -8 -47 -13 -86 -13 -86 9 -8 67 -14 67 -7 0 11 19 131 26 164 4 21 10 26
25 22 10 -3 19 -12 19 -19 0 -21 -31 -208 -35 -212 -4 -4 -255 35 -261 41 -2
2 3 54 13 116 14 93 19 111 34 111 10 0 20 -3 22 -7z m3398 -20 c-8 -15 -10
-15 -11 -2 0 17 10 32 18 25 2 -3 -1 -13 -7 -23z m-8043 -1 c2 -7 -3 -12 -12
-12 -9 0 -16 7 -16 16 0 17 22 14 28 -4z m7149 -27 c0 -8 -6 -15 -14 -15 -7 0
-13 7 -13 15 0 8 6 15 13 15 8 0 14 -7 14 -15z m-7147 -65 c19 -20 44 -42 55
-48 18 -10 18 -11 2 -12 -25 0 -93 68 -106 105 -9 25 -8 27 2 11 6 -10 28 -35
47 -56z m915 54 c-9 -9 -18 -14 -21 -11 -9 9 6 27 22 27 13 0 13 -2 -1 -16z
m455 -50 c0 -27 -24 -33 -34 -8 -7 19 12 47 25 38 5 -3 9 -16 9 -30z m6695 8
c-16 -26 -72 -72 -88 -72 -9 0 85 96 96 98 5 1 1 -11 -8 -26z m-8225 8 c0 -5
-17 -10 -38 -10 -22 0 -60 -6 -85 -14 -54 -16 -62 -6 -14 18 35 17 137 22 137
6z m8504 -16 c21 -16 21 -16 -4 -10 -14 4 -53 9 -88 13 -42 4 -59 9 -50 15 19
13 117 0 142 -18z m-1659 6 c-3 -5 -11 -10 -16 -10 -6 0 -7 5 -4 10 3 6 11 10
16 10 6 0 7 -4 4 -10z m-6905 -35 c0 -8 -4 -15 -9 -15 -13 0 -22 16 -14 24 11
11 23 6 23 -9z m838 -75 c9 -50 9 -51 -8 -34 -19 19 -24 44 -20 99 1 28 2 28
10 8 5 -12 13 -45 18 -73z m6832 58 c0 -27 -21 -98 -30 -98 -10 0 -9 69 1 76
5 3 9 16 9 30 0 14 4 22 10 19 6 -3 10 -16 10 -27z m-6122 -20 c26 -49 55 -83
96 -115 26 -21 27 -23 7 -23 -11 0 -21 5 -21 10 0 6 -4 10 -10 10 -24 0 -100
105 -106 147 -4 26 12 12 34 -29z m5412 27 c0 -3 -9 -24 -20 -46 -24 -47 -91
-114 -121 -122 -14 -4 0 15 39 54 33 33 66 74 72 90 11 25 30 40 30 24z
m-5445 -145 c7 -12 -2 -12 -30 0 -19 8 -19 9 2 9 12 1 25 -3 28 -9z m-364 -12
c1 -7 0 -27 -1 -43 0 -17 3 -43 9 -58 15 -40 3 -33 -15 8 -16 39 -19 105 -4
105 6 0 10 -6 11 -12z m6190 0 c3 -38 -5 -86 -18 -108 -14 -25 -14 -25 -9 9 4
18 6 51 6 72 0 22 5 39 10 39 6 0 10 -6 11 -12z m-6977 -27 c3 -4 -18 -11 -47
-14 -29 -3 -71 -15 -92 -27 -28 -16 -35 -17 -26 -6 31 37 150 71 165 47z
m7876 -18 c19 -9 29 -18 22 -21 -7 -2 -18 1 -25 7 -8 6 -39 13 -70 17 -31 4
-57 11 -57 17 0 13 86 0 130 -20z m-7895 -13 c3 -5 1 -10 -4 -10 -6 0 -11 5
-11 10 0 6 2 10 4 10 3 0 8 -4 11 -10z m478 -27 c8 -7 -11 -33 -24 -33 -5 0
-9 9 -9 20 0 19 20 27 33 13z m6160 -115 c-9 -27 -21 -48 -25 -48 -5 0 -5 8 1
18 5 9 11 42 15 72 3 30 6 60 7 65 0 6 5 -6 10 -25 6 -25 4 -48 -8 -82z
m-5481 45 l3 -48 43 3 c26 1 42 -2 42 -9 0 -6 7 -9 14 -6 11 4 13 1 9 -10 -4
-10 -2 -14 4 -10 7 5 9 0 6 -13 -3 -13 -14 -20 -29 -20 -12 0 -26 -4 -29 -10
-3 -5 -16 -10 -29 -10 -12 0 -27 -5 -34 -12 -11 -11 -13 -9 -11 8 0 4 -4 10
-11 14 -8 5 -8 14 0 34 6 17 7 41 1 68 -10 41 -6 68 10 68 4 0 9 -21 11 -47z
m-613 -66 c25 -11 40 -22 33 -25 -30 -10 -152 78 -152 109 0 7 17 -5 37 -26
20 -21 57 -47 82 -58z m6772 32 c-25 -21 -50 -39 -58 -39 -20 0 -16 5 30 35
23 16 46 34 50 42 5 8 12 12 15 8 4 -3 -13 -24 -37 -46z m-6931 -8 c0 -5 -19
-12 -43 -15 -23 -4 -55 -13 -71 -21 -34 -18 -44 -14 -20 6 35 29 134 51 134
30z m6092 -7 c37 -6 43 -14 53 -63 3 -18 -1 -21 -30 -21 -19 0 -37 5 -40 10
-3 6 -16 10 -28 10 -29 0 -57 19 -39 27 6 2 12 16 12 30 0 18 4 23 18 19 9 -3
34 -8 54 -12z m1019 -5 c27 -12 49 -26 49 -31 0 -7 -5 -7 -12 -1 -7 5 -33 15
-58 22 -25 7 -54 17 -65 21 -17 8 -16 9 8 9 16 1 51 -9 78 -20z m-266 -29 c-3
-5 -11 -10 -16 -10 -6 0 -7 5 -4 10 3 6 11 10 16 10 6 0 7 -4 4 -10z m-6522
-132 c-13 -6 -23 -17 -23 -24 0 -8 -8 -11 -21 -9 -12 2 -39 -5 -60 -15 -27
-14 -37 -16 -33 -6 8 21 96 66 129 65 29 0 29 -1 8 -11z m6415 0 c7 -7 12 -9
12 -4 0 7 54 -27 78 -50 22 -22 13 -28 -10 -8 -20 18 -70 44 -84 44 -3 0 -2
-6 2 -12 4 -7 -6 -2 -22 12 -16 14 -31 26 -33 28 -2 1 7 2 20 2 14 0 30 -5 37
-12z m-4408 -58 c0 -13 -7 -20 -18 -20 -27 0 -42 -20 -42 -55 0 -47 26 -77 64
-73 25 2 32 -1 34 -19 3 -18 -3 -23 -31 -28 -58 -11 -91 18 -108 94 -13 60 23
121 73 121 21 0 28 -5 28 -20z m2328 11 c10 -6 11 -18 3 -49 -5 -23 -6 -42 -2
-42 4 0 20 18 37 40 16 22 35 38 42 35 8 -3 19 -5 25 -5 6 0 -6 -18 -28 -40
-31 -32 -36 -42 -26 -53 6 -8 14 -38 18 -66 5 -43 3 -51 -10 -51 -19 0 -37 30
-37 62 0 23 -16 48 -31 48 -4 0 -10 -20 -13 -45 -7 -46 -11 -51 -34 -36 -12 7
-11 23 3 92 25 129 25 128 53 110z m462 -51 c0 -21 24 -28 35 -10 7 12 25 4
25 -11 0 -5 -11 -14 -25 -21 -19 -8 -28 -8 -40 2 -17 14 -21 60 -5 60 6 0 10
-9 10 -20z m-2970 -18 c73 -74 54 -197 -31 -194 -39 1 -58 17 -82 71 -24 54
-17 102 20 131 35 27 59 25 93 -8z m2710 22 c0 -4 -9 -38 -21 -76 -11 -39 -19
-71 -17 -73 2 -2 23 27 48 65 40 61 48 68 70 63 14 -3 26 -6 27 -7 1 -1 -10
-48 -25 -104 -21 -81 -30 -102 -44 -102 -23 0 -23 23 1 99 10 34 16 61 12 61
-3 -1 -25 -32 -49 -69 -35 -57 -46 -68 -63 -64 -30 8 -32 23 -14 89 33 117 36
124 56 124 10 0 19 -3 19 -6z m-2886 -156 c21 -48 35 -91 31 -97 -15 -25 -34
-6 -64 63 -28 62 -36 73 -53 68 -31 -8 -31 -23 1 -97 16 -39 27 -73 25 -77
-15 -23 -38 -1 -68 66 -55 121 -56 112 16 145 35 16 66 26 69 23 3 -4 22 -46
43 -94z m4455 75 c24 -25 6 -23 -24 2 -21 18 -24 23 -10 18 11 -4 26 -13 34
-20z m-1359 2 c0 -9 -11 -42 -24 -75 -14 -33 -22 -60 -18 -60 4 1 27 28 52 60
39 51 48 59 70 54 14 -3 27 -7 29 -10 2 -2 -13 -48 -33 -103 -32 -84 -40 -98
-57 -94 -10 3 -19 7 -19 9 0 3 7 22 39 102 11 28 19 52 18 52 -2 0 -27 -29
-55 -65 -53 -65 -65 -72 -91 -56 -21 13 46 201 71 201 10 0 18 -7 18 -15z
m-1045 -345 c202 -21 208 -13 -82 -122 -455 -171 -429 -163 -482 -145 -158 53
-662 246 -675 258 -6 5 10 9 40 10 27 1 94 5 149 9 142 11 919 4 1050 -10z
m-1746 -21 c-12 -7 -11 -9 1 -9 11 0 9 -4 -5 -12 -11 -6 -24 -17 -28 -25 -4
-7 -20 -13 -35 -13 -16 0 -32 -4 -37 -9 -6 -6 -31 -11 -57 -12 -27 -2 -48 -6
-48 -11 0 -14 -29 4 -32 20 -6 32 28 51 141 79 43 10 119 4 100 -8z m591 -95
c140 -53 310 -115 378 -140 159 -56 165 -60 130 -73 -21 -8 -40 -5 -95 16 -37
13 -111 40 -163 59 -52 19 -104 38 -115 43 -11 5 -56 22 -100 39 -344 129
-374 144 -300 151 6 1 125 -42 265 -95z m1865 68 c-3 -3 -11 0 -18 7 -9 10 -8
11 6 5 10 -3 15 -9 12 -12z m-320 0 l40 -8 -105 -41 c-222 -87 -296 -115 -340
-129 -25 -8 -54 -19 -65 -24 -11 -4 -46 -17 -77 -29 -32 -12 -83 -31 -113 -42
-54 -21 -116 -22 -136 -2 -9 9 703 281 736 282 11 0 38 -3 60 -7z m450 -19
c33 -8 64 -19 70 -24 5 -5 17 -9 27 -9 10 0 18 -4 18 -10 0 -5 6 -10 13 -10
17 0 75 -49 59 -50 -7 0 -10 -4 -7 -10 4 -6 -1 -7 -11 -3 -11 4 -15 3 -11 -4
7 -12 -38 0 -75 18 -10 5 -27 9 -37 9 -11 0 -23 5 -26 10 -3 6 -17 10 -30 10
-13 0 -27 5 -30 10 -3 6 -13 10 -21 10 -8 0 -28 14 -46 30 -22 22 -26 30 -14
30 9 0 16 5 16 11 0 7 9 9 23 5 12 -4 49 -14 82 -23z m-2402 -12 c65 -29 149
-61 158 -61 5 0 28 -8 52 -19 39 -18 83 -34 210 -80 63 -23 264 -100 292 -111
11 -5 31 -12 44 -16 l24 -6 -23 -13 c-25 -13 -30 -13 -70 -1 -36 11 -264 95
-315 116 -11 5 -47 18 -80 30 -33 11 -69 24 -80 29 -11 5 -47 19 -80 31 -33
12 -69 26 -80 30 -11 4 -47 18 -80 31 -68 25 -87 37 -79 50 9 15 62 10 107
-10z m2095 -43 c-2 -18 -23 -29 -103 -61 -55 -21 -109 -43 -120 -47 -41 -16
-111 -42 -155 -57 -25 -8 -58 -20 -75 -28 -55 -25 -210 -77 -242 -82 -17 -3
-39 -1 -48 4 -17 10 6 21 223 102 42 16 109 41 147 56 39 15 90 34 115 42 25
8 64 23 87 34 24 10 47 19 52 19 5 0 28 9 52 20 57 26 71 25 67 -2z m-1010
-244 c27 -8 28 -21 2 -29 -25 -8 -92 13 -85 26 7 10 49 12 83 3z m-2659 -17
c13 5 14 3 4 -8 -18 -19 -16 -37 5 -42 9 -3 -22 -5 -69 -6 l-86 -1 5 29 c5 33
31 42 91 29 18 -3 41 -4 50 -1z m5256 -22 c0 -11 -4 -23 -10 -27 -16 -12 -157
-10 -150 2 4 6 11 8 16 5 5 -4 5 5 -1 20 l-10 26 78 -3 c69 -3 77 -5 77 -23z
m-2748 -32 c6 -19 -34 -25 -72 -12 -24 9 -31 16 -22 21 17 12 90 5 94 -9z
m320 6 c22 -8 24 -12 13 -19 -33 -21 -81 -6 -65 20 8 13 17 13 52 -1z m-162
-63 c17 -12 17 -13 -8 -20 -40 -10 -79 13 -44 27 21 9 33 7 52 -7z"/>
<path d="M6482 10000 c0 -14 2 -19 5 -12 2 6 2 18 0 25 -3 6 -5 1 -5 -13z"/>
<path d="M5830 9946 c0 -2 7 -7 16 -10 8 -3 12 -2 9 4 -6 10 -25 14 -25 6z"/>
<path d="M5940 9710 c0 -5 5 -10 10 -10 6 0 10 5 10 10 0 6 -4 10 -10 10 -5 0
-10 -4 -10 -10z"/>
<path d="M5540 9229 c0 -5 5 -7 10 -4 6 3 10 8 10 11 0 2 -4 4 -10 4 -5 0 -10
-5 -10 -11z"/>
<path d="M7018 9164 c4 -29 2 -33 -14 -27 -11 4 -15 3 -10 -5 3 -6 -3 -17 -15
-26 -13 -8 -21 -25 -21 -40 0 -15 -5 -29 -11 -33 -6 -4 -8 0 -4 10 4 11 1 17
-8 17 -12 0 -10 -13 10 -66 32 -84 60 -123 101 -140 35 -15 93 -17 134 -5 25
8 25 8 -7 15 -44 10 -88 64 -101 122 -6 27 -18 84 -27 126 -17 80 -34 113 -27
52z m-12 -81 c-10 -10 -19 5 -10 18 6 11 8 11 12 0 2 -7 1 -15 -2 -18z"/>
<path d="M5510 9125 c-30 -13 -72 -38 -94 -57 -33 -29 -39 -40 -43 -85 -3 -29
-2 -64 1 -79 7 -26 7 -26 29 17 28 54 63 72 192 98 55 11 111 25 125 31 l25
10 -28 -4 c-18 -2 -31 2 -34 10 -3 8 -18 14 -33 14 -20 0 -31 6 -35 20 -3 11
-11 20 -17 20 -5 0 -8 7 -4 15 8 21 -17 18 -84 -10z m163 -82 c-7 -2 -19 -2
-25 0 -7 3 -2 5 12 5 14 0 19 -2 13 -5z"/>
<path d="M7540 9130 c8 -5 22 -9 30 -9 10 0 8 3 -5 9 -27 12 -43 12 -25 0z"/>
<path d="M6917 9084 c6 -15 23 -19 23 -5 0 5 -7 11 -14 14 -10 4 -13 1 -9 -9z"/>
<path d="M5798 9003 c-1 -5 -21 -17 -42 -28 -63 -32 -134 -102 -145 -142 -12
-41 0 -112 24 -147 14 -20 15 -19 15 16 0 62 59 115 190 173 50 22 76 42 66
52 -3 4 -12 1 -18 -5 -17 -17 -31 -15 -24 3 5 13 0 15 -30 9 -35 -6 -36 -6
-24 17 9 16 10 24 2 27 -6 2 -8 10 -5 18 5 14 -2 20 -9 7z"/>
<path d="M5993 8883 c-10 -16 -26 -37 -37 -48 -82 -87 -97 -168 -46 -248 35
-55 53 -62 38 -14 -16 51 10 93 118 193 52 48 94 91 94 97 0 5 -6 5 -13 -2 -8
-6 -18 -7 -22 -3 -5 4 -5 2 -2 -4 4 -7 0 -17 -8 -24 -13 -11 -14 -10 -9 4 5
13 1 15 -25 10 -21 -5 -31 -3 -31 6 0 7 -8 10 -19 7 -12 -3 -22 1 -25 10 -8
20 -7 25 2 19 5 -3 9 1 9 9 0 21 -4 19 -24 -12z"/>
<path d="M6216 8788 c-63 -137 -59 -198 17 -263 47 -41 66 -45 43 -10 -34 51
-15 120 60 226 20 26 33 53 29 59 -4 6 -1 9 6 8 7 -2 14 6 16 17 2 11 1 16 -4
10 -4 -5 -23 -11 -42 -12 -19 -1 -39 -8 -44 -15 -7 -10 -10 -10 -14 0 -2 6
-11 12 -19 12 -10 0 -13 7 -8 25 11 45 -1 27 -40 -57z m138 17 c-4 -8 -8 -15
-10 -15 -2 0 -4 7 -4 15 0 8 4 15 10 15 5 0 7 -7 4 -15z"/>
<path d="M8415 8211 c-21 -35 46 -145 106 -175 60 -30 143 15 197 107 28 49
28 53 -5 62 -22 5 -31 2 -46 -19 -10 -14 -25 -26 -33 -26 -8 0 -14 -4 -14 -10
0 -5 -22 -10 -50 -10 -27 0 -50 5 -50 10 0 6 -7 10 -14 10 -8 0 -21 12 -28 28
-13 28 -51 42 -63 23z"/>
<path d="M4520 8010 c0 -5 -10 -10 -22 -10 -13 0 -34 -9 -48 -20 -14 -11 -29
-20 -34 -20 -14 0 -96 -91 -96 -106 0 -8 -3 -14 -8 -14 -12 0 -32 -100 -32
-161 0 -31 5 -71 12 -90 12 -35 57 -106 96 -149 12 -13 22 -28 22 -32 0 -3 6
-13 13 -20 19 -20 37 -66 37 -96 0 -23 6 -29 40 -40 22 -6 76 -12 120 -12 70
0 90 4 146 31 66 32 157 111 168 147 4 12 17 22 29 24 16 2 23 11 25 31 l3 27
-146 0 -146 0 3 -27 c2 -20 9 -29 26 -31 16 -3 22 -8 18 -19 -3 -8 -6 -18 -6
-22 0 -14 -65 -77 -93 -89 -15 -6 -46 -12 -67 -12 l-40 0 0 61 c0 33 -9 95
-21 137 -40 149 -39 138 -13 161 39 34 144 26 144 -11 0 -4 -7 -8 -15 -8 -10
0 -15 -10 -15 -30 l0 -30 134 0 c110 0 135 3 140 15 8 23 -4 45 -25 45 -10 0
-26 12 -36 28 -26 39 -33 45 -85 70 -74 34 -166 28 -245 -16 -23 -12 -23 -12
-23 39 0 71 17 122 55 164 29 31 38 35 85 35 59 0 105 -26 121 -67 7 -20 6
-28 -7 -37 -9 -7 -15 -21 -12 -32 3 -17 14 -19 141 -22 l137 -3 0 31 c0 27 -3
30 -29 30 -21 0 -32 6 -36 19 -6 20 -44 63 -77 89 -43 34 -122 52 -230 52 -65
0 -108 -4 -108 -10z"/>
<path d="M5033 7992 c-3 -13 6 -53 21 -93 14 -38 26 -85 26 -103 0 -67 62 -70
75 -4 10 50 29 102 42 115 6 7 13 17 15 23 2 6 28 11 58 13 l55 2 3 -312 c2
-308 2 -313 -18 -313 -45 0 -70 -14 -70 -40 0 -18 10 -19 158 -22 189 -4 202
-2 202 21 0 27 -26 44 -54 37 -14 -3 -28 -1 -35 7 -7 9 -9 99 -6 288 3 151 5
287 5 302 0 34 17 41 75 33 47 -7 46 -6 84 -99 6 -15 11 -38 11 -51 0 -13 9
-31 21 -42 30 -27 53 -8 57 47 1 24 7 54 12 67 36 81 41 100 35 125 l-6 22
-380 0 -380 0 -6 -23z"/>
<path d="M6090 8011 c-8 -5 -28 -15 -45 -22 -16 -8 -36 -20 -43 -26 -7 -7 -19
-16 -25 -20 -21 -13 -73 -86 -88 -123 -17 -41 -20 -266 -4 -278 6 -4 21 -27
34 -52 14 -25 28 -47 31 -50 23 -16 90 -128 90 -149 0 -51 11 -56 117 -54 60
0 99 5 101 12 2 6 12 11 23 11 10 0 19 5 19 10 0 6 6 10 13 10 7 0 38 20 68
45 56 48 119 149 119 193 0 15 6 22 20 22 16 0 20 7 20 30 l0 31 -142 -3
c-135 -3 -143 -4 -143 -23 0 -11 10 -24 23 -30 32 -14 30 -45 -11 -157 -5 -16
-13 -28 -18 -28 -5 0 -9 -7 -9 -14 0 -21 -62 -66 -91 -66 -23 0 -24 3 -25 73
-1 40 -12 113 -24 162 -30 115 -34 331 -8 380 26 47 53 65 102 65 37 0 48 -5
64 -27 18 -26 42 -93 42 -119 0 -6 -11 -16 -25 -22 -14 -7 -25 -20 -25 -31 0
-19 8 -20 129 -23 70 -2 136 -2 145 0 21 4 22 52 1 52 -8 0 -25 21 -38 48 -42
86 -67 122 -84 122 -5 0 -18 8 -29 18 -10 10 -38 23 -60 30 -46 13 -201 15
-224 3z"/>
<path d="M6627 8012 c-24 -3 -28 -7 -25 -30 3 -23 8 -27 36 -28 18 -1 37 -5
43 -11 6 -6 8 -128 7 -314 -3 -295 -4 -304 -23 -307 -58 -8 -65 -13 -65 -37
l0 -25 166 0 165 0 -3 28 c-2 15 -10 28 -18 28 -8 1 -23 2 -32 3 -16 1 -18 15
-18 151 l0 150 25 0 c31 0 61 -17 98 -54 40 -42 56 -85 59 -167 2 -58 0 -72
-15 -80 -9 -6 -17 -21 -17 -34 l0 -25 151 0 150 0 -3 28 c-2 22 -8 28 -35 30
-32 3 -33 4 -33 53 0 27 -4 57 -9 67 -5 9 -14 31 -21 48 -17 47 -88 116 -145
143 -17 7 -38 17 -47 22 -10 5 -27 9 -38 9 -28 0 -25 20 13 82 39 64 64 94 98
118 23 17 28 18 72 3 62 -20 77 -13 77 36 0 22 5 52 10 67 16 41 -2 54 -72 54
-46 0 -67 -5 -91 -22 -48 -34 -60 -52 -129 -191 -83 -168 -93 -167 -93 8 l0
130 35 5 c29 4 36 10 38 33 2 17 -1 27 -10 28 -71 2 -279 3 -301 1z"/>
<path d="M7822 8012 c-40 -3 -43 -5 -40 -30 2 -21 10 -28 33 -32 29 -5 30 -7
30 -61 0 -45 -5 -60 -25 -81 -14 -14 -33 -37 -43 -50 -46 -59 -74 -93 -94
-116 -13 -14 -23 -29 -23 -33 0 -5 -7 -9 -15 -9 -13 0 -15 23 -13 172 l3 173
30 5 c24 4 31 11 33 33 l3 27 -168 -2 -168 -3 0 -25 c0 -22 5 -26 45 -30 25
-3 44 -8 43 -12 -2 -5 -3 -145 -3 -313 l0 -305 -33 0 c-37 0 -57 -15 -57 -42
0 -17 13 -18 171 -18 l170 0 -3 28 c-2 22 -8 28 -35 30 l-33 3 1 72 c1 93 5
105 59 167 25 29 61 71 80 94 19 22 45 52 58 66 l22 25 0 -213 c0 -162 -3
-212 -12 -213 -7 -1 -22 -2 -33 -3 -14 -1 -21 -9 -23 -28 l-3 -28 170 0 c163
0 171 1 171 20 0 23 -28 40 -64 40 l-26 0 2 313 3 312 40 5 c32 4 41 9 43 28
2 12 -3 24 -10 27 -16 6 -226 11 -286 7z"/>
<path d="M8234 8012 c-35 -3 -43 -7 -46 -27 -6 -27 7 -35 58 -35 l34 0 0 -315
c0 -245 -3 -315 -12 -316 -7 -1 -22 -1 -33 0 -29 2 -57 -21 -50 -41 6 -15 28
-17 171 -20 l164 -3 0 33 c0 30 -2 32 -27 30 l-28 -3 -6 80 c-6 87 2 108 66
180 15 17 36 43 48 58 37 48 92 107 100 107 4 0 7 -94 7 -210 l0 -210 -24 0
c-40 0 -56 -11 -56 -36 l0 -24 170 0 170 0 0 24 c0 26 -16 36 -60 36 l-29 0 2
313 2 312 40 5 c35 4 40 9 43 33 l3 28 -163 -3 -163 -3 0 -25 c0 -21 5 -26 33
-28 31 -3 32 -4 32 -51 0 -31 -6 -54 -18 -67 -9 -10 -46 -55 -81 -99 -104
-131 -111 -139 -117 -133 -3 4 -6 82 -7 175 l-1 168 29 5 c25 5 30 10 27 30
-1 13 -4 25 -6 27 -5 5 -219 9 -272 5z"/>
<path d="M3704 7995 c-11 -27 4 -45 38 -45 18 0 43 -3 56 -6 35 -10 29 -63
-20 -158 -23 -44 -46 -91 -52 -103 -6 -13 -14 -23 -18 -23 -5 0 -8 -7 -8 -15
0 -8 -4 -23 -9 -33 -28 -56 -44 -107 -62 -207 -7 -38 -18 -73 -24 -77 -5 -4
-27 -8 -47 -8 -47 0 -56 -25 -34 -90 8 -25 18 -64 22 -88 8 -49 35 -89 53 -78
13 9 41 71 41 94 0 8 11 29 24 47 22 28 33 33 109 45 100 15 220 9 269 -14 36
-17 78 -87 78 -129 0 -23 17 -47 32 -47 17 0 48 46 48 73 0 16 10 58 22 93 26
75 17 94 -42 94 -32 0 -39 4 -48 28 -25 64 -52 169 -68 267 -3 17 -9 46 -14
65 -9 38 -26 147 -35 223 -4 44 -3 47 19 47 14 0 25 7 28 18 11 40 3 42 -178
42 -146 0 -176 -2 -180 -15z m165 -307 c15 -85 54 -253 75 -320 l14 -48 -117
0 c-78 0 -121 4 -129 12 -14 14 -16 87 -3 120 5 13 14 41 20 63 19 62 66 171
81 185 3 3 11 17 19 33 8 15 17 27 21 27 3 0 12 -33 19 -72z"/>
<path d="M5300 6970 c-8 -4 -31 -15 -50 -24 -31 -13 -83 -61 -119 -108 -30
-40 -51 -124 -51 -205 0 -99 17 -142 95 -248 63 -86 85 -126 85 -159 0 -21 6
-25 40 -31 80 -13 159 5 252 58 66 37 139 137 152 207 4 23 14 39 29 45 12 6
22 19 22 30 0 19 -8 20 -148 23 l-148 3 3 -23 c2 -13 13 -27 25 -33 19 -8 21
-14 16 -60 -4 -27 -14 -68 -23 -90 -23 -53 -85 -115 -116 -115 -22 0 -24 4
-24 52 0 52 -16 156 -30 193 -29 77 -40 270 -18 334 7 20 23 51 36 69 21 29
28 32 72 32 44 0 52 -4 73 -32 31 -42 42 -117 19 -125 -21 -8 -32 -23 -32 -45
0 -16 14 -18 150 -18 138 0 150 1 150 18 0 22 -19 42 -40 42 -11 0 -21 16 -30
50 -7 28 -16 50 -20 50 -3 0 -13 13 -22 28 -10 16 -44 42 -79 60 -57 30 -69
32 -158 31 -53 0 -103 -4 -111 -9z"/>
<path d="M5982 6953 c3 -24 8 -28 41 -31 34 -3 37 -6 37 -33 0 -25 -68 -144
-127 -224 -5 -6 -18 -28 -30 -50 -11 -22 -30 -56 -40 -75 -23 -41 -30 -63 -47
-146 -10 -50 -10 -70 1 -108 8 -25 19 -46 25 -46 6 0 8 -3 5 -7 -4 -4 7 -13
24 -20 37 -15 119 -17 119 -3 0 6 6 10 13 10 20 0 91 80 117 131 13 24 33 69
46 99 13 32 24 49 27 40 13 -41 46 -158 51 -182 6 -24 3 -27 -26 -30 -28 -2
-34 -8 -36 -30 l-3 -28 168 0 168 0 11 -27 c7 -16 18 -56 25 -91 7 -35 19 -68
26 -74 18 -15 50 15 59 56 7 35 31 84 48 101 6 7 31 16 56 20 57 11 246 11
285 0 49 -14 95 -75 95 -129 0 -22 27 -56 45 -56 15 0 34 35 35 64 0 16 9 56
21 88 30 85 25 102 -32 106 -41 3 -46 6 -56 35 -29 90 -66 243 -83 352 -7 39
-16 89 -21 112 -12 57 -12 146 1 138 18 -11 46 4 46 25 0 29 -22 33 -199 34
-136 2 -160 -1 -167 -14 -16 -29 7 -47 65 -49 11 -1 27 -5 34 -10 21 -14 15
-84 -11 -129 -95 -165 -139 -273 -171 -422 l-13 -65 -47 -3 c-27 -2 -47 -8
-47 -15 0 -8 -3 -8 -12 1 -7 7 -26 12 -44 12 -35 0 -31 -10 -86 185 -11 39
-24 81 -28 95 -4 14 -13 45 -20 70 -7 25 -16 56 -20 70 -4 14 -13 45 -20 70
-7 25 -19 64 -26 88 -19 59 -18 62 21 62 32 0 35 2 35 30 l0 30 -171 0 -170 0
3 -27z m140 -229 c21 -77 21 -139 0 -180 -63 -128 -120 -204 -152 -204 -10 0
-26 10 -34 22 -24 34 -21 70 14 173 14 41 71 152 88 171 9 10 25 32 36 48 21
33 33 26 48 -30z m747 -66 c7 -35 16 -79 21 -98 32 -126 63 -248 67 -262 5
-16 -5 -18 -112 -18 -128 0 -145 7 -145 56 0 15 4 41 9 58 5 17 15 51 22 76
14 52 109 250 119 250 4 0 13 -28 19 -62z"/>
<path d="M3901 6231 l-24 -21 24 -35 c13 -19 27 -35 32 -35 4 0 7 -8 6 -17 0
-10 -28 -40 -61 -68 -34 -27 -91 -77 -126 -110 -35 -33 -69 -62 -75 -64 -7 -2
-28 -20 -47 -40 -19 -20 -54 -52 -76 -71 -23 -19 -65 -55 -94 -80 -29 -25 -69
-60 -88 -77 -44 -41 -57 -41 -92 -3 -31 33 -45 37 -66 16 -20 -20 -18 -33 9
-60 13 -13 41 -45 63 -72 21 -27 54 -64 72 -84 19 -19 52 -56 74 -82 l40 -46
25 24 24 24 -20 27 c-29 36 -27 44 20 83 23 18 58 50 79 70 21 20 57 52 80 71
24 19 53 45 67 57 13 13 30 22 37 19 24 -9 48 -109 40 -168 -10 -71 -35 -115
-124 -208 -58 -61 -67 -66 -89 -47 -17 15 -20 15 -45 -5 l-27 -21 20 -22 c12
-12 21 -25 21 -29 0 -3 17 -23 38 -44 48 -49 110 -119 142 -161 27 -35 44 -39
66 -18 19 20 18 32 -7 66 l-22 29 50 48 c30 29 63 76 84 118 30 64 33 78 33
161 0 89 -6 113 -45 201 -11 24 -19 46 -19 51 0 7 31 17 133 41 26 6 75 11
110 11 77 0 103 -20 136 -102 13 -32 25 -58 28 -58 5 0 65 40 73 50 10 11 50
30 63 30 7 0 21 6 30 13 15 11 15 15 -3 55 -21 46 -86 112 -110 112 -9 0 -21
5 -27 11 -16 16 -177 1 -228 -21 -21 -9 -58 -18 -113 -27 -18 -3 -35 -9 -38
-14 -3 -5 -18 -9 -33 -9 -15 0 -32 -5 -39 -12 -8 -8 -15 -8 -27 2 -8 7 -15 16
-15 20 0 10 36 50 45 50 4 0 19 12 33 28 15 15 56 52 92 82 36 30 67 58 68 63
7 15 27 6 59 -25 l33 -32 20 24 c11 13 20 26 20 29 0 3 -23 31 -50 61 -28 30
-61 68 -73 83 -12 16 -54 62 -92 103 l-71 75 -23 -20z"/>
<path d="M8576 6196 c-105 -104 -101 -182 25 -429 10 -22 19 -45 19 -53 0 -8
3 -14 8 -14 7 0 25 -37 36 -75 3 -11 2 -26 -3 -34 -7 -11 -15 -10 -42 10 -19
13 -41 31 -50 41 -9 10 -19 18 -23 18 -7 0 -38 25 -72 58 -13 12 -27 22 -31
22 -29 1 -83 80 -55 80 5 0 14 12 21 27 11 24 10 29 -9 45 -29 23 -37 23 -51
-4 -6 -12 -21 -31 -33 -43 -11 -12 -28 -32 -36 -45 -8 -12 -27 -36 -42 -52
-16 -17 -28 -33 -28 -37 0 -4 -15 -23 -34 -42 -18 -20 -41 -50 -52 -67 -18
-31 -18 -32 1 -47 28 -20 40 -19 59 8 35 50 47 62 54 52 4 -6 23 -22 44 -37
20 -15 42 -33 50 -40 7 -7 29 -25 50 -40 20 -15 42 -34 50 -41 7 -7 29 -24 48
-37 19 -13 42 -32 51 -42 9 -10 20 -18 23 -18 4 0 13 -6 20 -12 7 -7 28 -24
46 -38 37 -28 92 -72 100 -80 3 -3 21 -17 42 -32 20 -15 42 -34 50 -41 7 -7
25 -21 41 -31 26 -17 36 -41 20 -48 -5 -1 -19 -18 -32 -37 l-24 -34 23 -19
c29 -24 35 -23 59 10 12 15 24 32 28 37 65 83 78 101 83 105 3 3 21 25 40 50
19 25 40 51 47 58 32 34 36 53 12 75 l-22 21 -29 -33 c-28 -31 -30 -32 -53
-17 -13 9 -34 26 -47 39 -13 12 -39 33 -58 47 -19 13 -37 27 -40 30 -3 3 -21
17 -42 32 -20 15 -42 34 -50 41 -7 7 -25 21 -40 31 -24 15 -25 20 -13 32 7 8
18 14 24 14 6 0 11 3 11 8 0 17 70 36 136 36 56 0 82 -5 120 -24 27 -14 51
-28 52 -32 2 -5 9 -8 15 -8 7 0 26 -12 42 -26 17 -14 37 -29 45 -34 11 -7 12
-13 2 -34 -9 -21 -8 -28 4 -41 9 -8 21 -15 28 -15 13 0 48 36 78 80 9 14 31
40 47 59 17 18 31 36 31 40 0 3 18 26 40 51 41 47 48 68 28 88 -20 20 -45 13
-65 -18 -18 -29 -20 -29 -39 -13 -10 10 -31 24 -46 32 -16 8 -28 18 -28 23 0
4 -7 8 -15 8 -8 0 -23 4 -33 9 -63 32 -183 41 -251 20 -61 -20 -140 -61 -175
-91 -26 -24 -46 -23 -46 1 0 11 -4 22 -8 25 -5 3 -19 38 -31 78 -13 40 -27 83
-32 96 -27 70 0 131 74 167 51 24 53 40 7 81 -21 19 -47 52 -58 72 -10 20 -26
38 -34 40 -9 2 -36 -17 -62 -42z"/>
<path d="M7822 5512 c-21 -19 -70 -148 -101 -264 -25 -94 -28 -233 -6 -296 48
-136 116 -214 237 -274 20 -10 46 -18 57 -18 11 0 22 -4 25 -9 3 -5 25 -12 48
-15 24 -4 61 -9 83 -12 22 -3 44 -10 49 -15 6 -5 40 -9 77 -9 l67 0 19 43 c11
23 25 62 32 87 7 25 17 55 22 68 5 13 9 33 9 46 0 12 3 26 7 30 14 13 32 120
32 188 1 70 -3 84 -51 186 -30 62 -110 152 -135 152 -7 0 -13 5 -13 10 0 6 -9
10 -19 10 -11 0 -22 4 -25 9 -3 5 -16 11 -28 14 -13 3 -41 11 -63 17 -39 11
-92 23 -165 35 -19 4 -44 10 -55 15 -44 19 -83 19 -103 2z m66 -232 c22 -11
48 -20 56 -20 8 0 18 -4 21 -10 3 -5 17 -10 30 -10 13 0 27 -4 30 -10 3 -5 17
-10 30 -10 13 0 27 -4 30 -10 3 -5 17 -10 30 -10 13 0 27 -4 30 -10 3 -5 15
-10 25 -10 53 0 174 -77 199 -127 16 -31 13 -111 -5 -158 -8 -22 -17 -48 -21
-57 -7 -23 -14 -22 -58 2 -20 11 -44 20 -55 20 -10 0 -22 5 -25 10 -3 6 -19
10 -35 10 -16 0 -32 5 -35 10 -3 6 -19 10 -35 10 -16 0 -32 5 -35 10 -3 6 -15
10 -26 10 -10 0 -27 4 -37 8 -9 5 -39 19 -67 32 -66 31 -115 68 -115 86 0 7
-3 14 -8 14 -9 0 -32 72 -32 102 0 32 22 90 44 115 11 13 20 23 21 23 1 0 20
-9 43 -20z"/>
<path d="M4756 5473 c-4 -4 -32 -11 -64 -15 -31 -5 -74 -11 -95 -14 -20 -4
-40 -10 -43 -15 -3 -5 -18 -9 -34 -9 -16 0 -32 -4 -35 -10 -3 -5 -15 -10 -26
-10 -10 0 -19 -4 -19 -9 0 -5 -8 -11 -17 -14 -66 -21 -168 -120 -207 -199 -16
-32 -34 -89 -42 -128 -13 -72 -14 -68 22 -233 4 -15 11 -30 15 -33 5 -3 9 -14
9 -25 0 -10 4 -27 9 -37 5 -9 19 -44 32 -77 34 -91 42 -98 114 -90 33 4 65 11
70 15 6 4 24 10 40 13 29 6 69 15 146 35 20 5 51 17 69 26 18 9 39 16 47 16 7
0 13 4 13 8 0 4 14 16 31 26 38 22 97 83 105 108 3 10 9 18 14 18 4 0 10 8 13
18 4 9 13 35 21 57 10 25 16 74 16 131 0 80 -5 108 -39 210 -21 66 -44 142
-51 169 -7 28 -17 56 -23 63 -10 13 -79 17 -91 5z m-114 -125 c10 -8 18 -35
22 -68 3 -30 10 -75 15 -100 57 -267 61 -300 49 -351 -19 -81 -81 -123 -215
-146 l-31 -5 -5 54 c-3 29 -10 73 -16 98 -7 25 -16 61 -21 80 -44 176 -50 253
-25 314 20 48 91 116 121 116 12 0 26 5 29 10 9 14 58 12 77 -2z"/>
<path d="M5269 5197 c-15 -34 -5 -57 25 -57 28 0 77 -19 88 -34 7 -10 -16 -76
-30 -86 -4 -3 -23 -25 -42 -50 -19 -25 -46 -56 -60 -70 -14 -14 -42 -46 -63
-72 -21 -26 -43 -53 -50 -60 -7 -7 -28 -33 -47 -58 -19 -25 -41 -52 -50 -60
-59 -59 -132 -202 -145 -287 -11 -68 -3 -79 68 -92 34 -7 70 -17 79 -22 10 -5
35 -9 56 -9 36 0 40 2 50 39 7 21 12 61 12 88 0 42 -3 52 -20 56 -59 15 22
267 117 365 7 7 13 16 13 20 0 11 120 135 125 130 2 -2 6 -156 7 -342 l3 -338
-42 6 c-31 4 -43 2 -43 -7 0 -6 -3 -21 -6 -32 -4 -16 2 -22 35 -32 23 -7 52
-13 65 -13 14 0 27 -4 30 -9 6 -8 21 -12 129 -27 23 -3 47 -10 52 -14 6 -5 28
-10 49 -11 36 -3 40 -1 47 23 6 24 3 29 -23 43 -17 8 -37 15 -43 15 -7 0 -16
8 -21 18 -11 24 -17 748 -7 797 9 38 11 40 49 40 36 0 39 2 42 31 3 28 -1 32
-25 37 -15 3 -48 11 -73 17 -59 15 -127 30 -165 36 -16 3 -39 9 -50 14 -11 5
-33 11 -50 13 -16 3 -40 8 -52 12 -18 6 -25 2 -34 -18z"/>
<path d="M7105 5190 c-3 -5 -15 -10 -25 -10 -34 0 -134 -62 -185 -115 -49 -51
-81 -105 -104 -176 -13 -42 -15 -164 -2 -205 5 -16 14 -49 21 -74 28 -96 87
-172 200 -260 25 -19 47 -38 48 -42 2 -4 8 -8 13 -8 21 0 80 -66 91 -102 11
-38 11 -38 65 -38 29 0 61 4 71 9 9 5 35 17 57 26 114 49 188 122 255 256 30
58 33 72 33 156 0 86 1 92 21 95 16 2 20 9 18 28 -2 14 -7 28 -10 32 -7 7 -57
-2 -127 -22 -22 -7 -55 -14 -73 -17 -18 -3 -35 -9 -38 -14 -3 -5 -18 -9 -34
-9 -16 0 -32 -4 -35 -10 -3 -5 -15 -10 -26 -10 -17 0 -20 -6 -17 -32 3 -31 5
-33 35 -30 28 3 33 0 40 -25 4 -15 7 -66 7 -113 0 -100 -28 -185 -77 -231 -32
-31 -84 -41 -74 -14 9 22 -30 130 -86 240 -29 55 -54 102 -57 105 -9 9 -67
154 -78 195 -6 22 -15 59 -21 81 -23 86 -9 171 36 219 73 80 167 51 226 -68
32 -67 34 -87 7 -87 -26 0 -34 -19 -21 -53 10 -25 41 -39 41 -18 0 5 15 11 33
14 17 3 50 10 72 17 22 7 55 14 73 17 18 3 35 9 38 14 3 5 16 9 29 9 45 0 76
21 73 49 -2 21 -10 27 -35 31 -24 4 -41 17 -67 54 -41 57 -85 96 -145 125 -37
17 -63 21 -152 21 -61 0 -110 -4 -114 -10z"/>
<path d="M6279 5102 c-34 -15 -239 -204 -239 -221 0 -5 -6 -14 -14 -18 -16
-10 -69 -110 -90 -173 -28 -81 -20 -214 18 -300 25 -58 133 -177 216 -240 18
-14 44 -35 59 -48 38 -32 86 -53 108 -46 21 8 223 209 269 269 63 80 94 167
94 259 0 140 -75 262 -241 396 -24 19 -62 54 -84 76 -42 44 -70 57 -96 46z
m-40 -237 c13 -19 66 -78 118 -132 52 -54 116 -127 141 -163 43 -59 47 -69 47
-124 0 -38 -5 -61 -13 -64 -6 -2 -12 -10 -12 -17 0 -24 -90 -105 -116 -105
-15 0 -24 6 -24 16 0 9 -42 57 -92 108 -80 79 -111 113 -178 193 -21 26 -50
106 -50 139 0 76 78 182 135 183 12 1 29 -13 44 -34z"/>
<path d="M4790 3716 c0 -2 9 -6 20 -9 11 -3 18 -1 14 4 -5 9 -34 13 -34 5z"/>
<path d="M4758 3703 c7 -3 16 -2 19 1 4 3 -2 6 -13 5 -11 0 -14 -3 -6 -6z"/>
<path d="M4817 2793 c-12 -12 -7 -63 9 -94 21 -42 58 -37 62 8 6 58 -42 116
-71 86z"/>
<path d="M7750 2250 c-8 -5 -10 -10 -5 -10 6 0 17 5 25 10 8 5 11 10 5 10 -5
0 -17 -5 -25 -10z"/>
<path d="M5997 10997 c53 -58 54 -85 8 -224 -19 -59 -32 -109 -29 -112 4 -3 9
0 11 7 3 6 12 12 21 13 14 0 13 2 -3 9 -21 9 -8 14 28 10 10 -1 24 3 30 8 12
10 49 -8 48 -22 -5 -39 4 -16 15 39 15 83 17 155 5 187 -14 37 -59 75 -108 92
l-46 16 20 -23z"/>
<path d="M6006 10655 c4 -8 8 -15 10 -15 2 0 4 7 4 15 0 8 -4 15 -10 15 -5 0
-7 -7 -4 -15z"/>
<path d="M7210 10657 c0 -67 -63 -106 -213 -133 -82 -15 -95 -20 -75 -28 l23
-9 -22 -4 c-30 -6 -29 -23 1 -23 30 0 49 -22 39 -45 -5 -14 -3 -17 10 -12 10
4 17 1 18 -6 0 -7 4 -3 9 8 8 19 9 19 9 1 1 -13 5 -16 14 -9 6 5 32 15 57 22
105 30 150 81 150 171 0 30 -5 62 -10 70 -8 13 -10 12 -10 -3z"/>
<path d="M6870 10490 c-13 -8 -12 -10 3 -10 9 0 17 5 17 10 0 12 -1 12 -20 0z"/>
<path d="M3714 10378 l-29 -33 33 29 c17 17 32 31 32 33 0 8 -8 1 -36 -29z"/>
<path d="M7915 10390 c10 -11 20 -20 23 -20 3 0 -3 9 -13 20 -10 11 -20 20
-23 20 -3 0 3 -9 13 -20z"/>
<path d="M7395 10367 c-31 -47 -71 -56 -214 -50 -85 4 -122 3 -118 -4 4 -6 23
-14 43 -18 33 -6 35 -7 18 -20 -11 -8 -14 -15 -8 -15 28 0 25 -60 -2 -60 -8 0
-14 -4 -14 -10 0 -5 3 -10 8 -10 30 0 183 23 209 31 47 15 90 70 98 123 9 60
4 69 -20 33z"/>
<path d="M4544 10368 l-19 -23 23 19 c21 18 27 26 19 26 -2 0 -12 -10 -23 -22z"/>
<path d="M3424 10198 l-19 -23 23 19 c21 18 27 26 19 26 -2 0 -12 -10 -23 -22z"/>
<path d="M5438 10133 c6 -2 18 -2 25 0 6 3 1 5 -13 5 -14 0 -19 -2 -12 -5z"/>
<path d="M5095 10095 c-25 -12 -26 -14 -5 -9 28 7 60 23 45 23 -5 0 -23 -6
-40 -14z"/>
<path d="M9315 10010 c10 -11 20 -20 23 -20 3 0 -3 9 -13 20 -10 11 -20 20
-23 20 -3 0 3 -9 13 -20z"/>
<path d="M10292 9990 c0 -14 2 -19 5 -12 2 6 2 18 0 25 -3 6 -5 1 -5 -13z"/>
<path d="M2192 9965 c0 -16 2 -22 5 -12 2 9 2 23 0 30 -3 6 -5 -1 -5 -18z"/>
<path d="M4262 9764 c-57 -42 -101 -78 -98 -81 4 -4 153 105 196 144 34 31 -2
8 -98 -63z"/>
<path d="M10551 9594 c0 -11 3 -14 6 -6 3 7 2 16 -1 19 -3 4 -6 -2 -5 -13z"/>
<path d="M1932 9580 c0 -14 2 -19 5 -12 2 6 2 18 0 25 -3 6 -5 1 -5 -13z"/>
<path d="M2381 9504 c0 -11 3 -14 6 -6 3 7 2 16 -1 19 -3 4 -6 -2 -5 -13z"/>
<path d="M10111 9474 c0 -11 3 -14 6 -6 3 7 2 16 -1 19 -3 4 -6 -2 -5 -13z"/>
<path d="M2371 9454 c0 -11 3 -14 6 -6 3 7 2 16 -1 19 -3 4 -6 -2 -5 -13z"/>
<path d="M10122 9420 c0 -14 2 -19 5 -12 2 6 2 18 0 25 -3 6 -5 1 -5 -13z"/>
<path d="M2362 9405 c0 -16 2 -22 5 -12 2 9 2 23 0 30 -3 6 -5 -1 -5 -18z"/>
<path d="M10811 9054 c0 -11 3 -14 6 -6 3 7 2 16 -1 19 -3 4 -6 -2 -5 -13z"/>
<path d="M1672 9040 c0 -14 2 -19 5 -12 2 6 2 18 0 25 -3 6 -5 1 -5 -13z"/>
<path d="M10822 9010 c0 -14 2 -19 5 -12 2 6 2 18 0 25 -3 6 -5 1 -5 -13z"/>
<path d="M1662 8990 c0 -14 2 -19 5 -12 2 6 2 18 0 25 -3 6 -5 1 -5 -13z"/>
<path d="M10962 8730 c0 -14 2 -19 5 -12 2 6 2 18 0 25 -3 6 -5 1 -5 -13z"/>
<path d="M1522 8705 c0 -16 2 -22 5 -12 2 9 2 23 0 30 -3 6 -5 -1 -5 -18z"/>
<path d="M10972 8660 c0 -19 2 -27 5 -17 2 9 2 25 0 35 -3 9 -5 1 -5 -18z"/>
<path d="M1512 8630 c0 -19 2 -27 5 -17 2 9 2 25 0 35 -3 9 -5 1 -5 -18z"/>
<path d="M11072 8480 c0 -14 2 -19 5 -12 2 6 2 18 0 25 -3 6 -5 1 -5 -13z"/>
<path d="M1412 8450 c0 -19 2 -27 5 -17 2 9 2 25 0 35 -3 9 -5 1 -5 -18z"/>
<path d="M11083 8350 c0 -36 2 -50 4 -32 2 17 2 47 0 65 -2 17 -4 3 -4 -33z"/>
<path d="M1381 7804 c0 -11 3 -14 6 -6 3 7 2 16 -1 19 -3 4 -6 -2 -5 -13z"/>
<path d="M891 7694 c0 -11 3 -14 6 -6 3 7 2 16 -1 19 -3 4 -6 -2 -5 -13z"/>
<path d="M11142 7605 c0 -16 2 -22 5 -12 2 9 2 23 0 30 -3 6 -5 -1 -5 -18z"/>
<path d="M1353 7535 c0 -22 2 -30 4 -17 2 12 2 30 0 40 -3 9 -5 -1 -4 -23z"/>
<path d="M1331 7254 c0 -11 3 -14 6 -6 3 7 2 16 -1 19 -3 4 -6 -2 -5 -13z"/>
<path d="M11151 7244 c0 -11 3 -14 6 -6 3 7 2 16 -1 19 -3 4 -6 -2 -5 -13z"/>
<path d="M11141 7194 c0 -11 3 -14 6 -6 3 7 2 16 -1 19 -3 4 -6 -2 -5 -13z"/>
<path d="M861 7084 c0 -11 3 -14 6 -6 3 7 2 16 -1 19 -3 4 -6 -2 -5 -13z"/>
<path d="M871 7034 c0 -11 3 -14 6 -6 3 7 2 16 -1 19 -3 4 -6 -2 -5 -13z"/>
<path d="M11611 7024 c0 -11 3 -14 6 -6 3 7 2 16 -1 19 -3 4 -6 -2 -5 -13z"/>
<path d="M881 6994 c0 -11 3 -14 6 -6 3 7 2 16 -1 19 -3 4 -6 -2 -5 -13z"/>
<path d="M11601 6974 c0 -11 3 -14 6 -6 3 7 2 16 -1 19 -3 4 -6 -2 -5 -13z"/>
<path d="M11621 6644 c0 -11 3 -14 6 -6 3 7 2 16 -1 19 -3 4 -6 -2 -5 -13z"/>
<path d="M871 6624 c0 -11 3 -14 6 -6 3 7 2 16 -1 19 -3 4 -6 -2 -5 -13z"/>
<path d="M860 6355 c0 -5 5 -17 10 -25 5 -8 10 -10 10 -5 0 6 -5 17 -10 25 -5
8 -10 11 -10 5z"/>
<path d="M881 6300 c0 -8 4 -22 9 -30 12 -18 12 -2 0 25 -6 13 -9 15 -9 5z"/>
<path d="M1190 5421 c0 -6 4 -13 10 -16 6 -3 7 1 4 9 -7 18 -14 21 -14 7z"/>
<path d="M11489 5083 l-34 -38 38 34 c34 33 42 41 34 41 -2 0 -19 -17 -38 -37z"/>
<path d="M1270 5006 c0 -2 8 -10 18 -17 15 -13 16 -12 3 4 -13 16 -21 21 -21
13z"/>
<path d="M630 4866 c0 -2 8 -10 18 -17 15 -13 16 -12 3 4 -13 16 -21 21 -21
13z"/>
<path d="M11634 4388 l-19 -23 23 19 c21 18 27 26 19 26 -2 0 -12 -10 -23 -22z"/>
<path d="M850 4386 c0 -2 8 -10 18 -17 15 -13 16 -12 3 4 -13 16 -21 21 -21
13z"/>
<path d="M1930 3106 c0 -2 7 -7 16 -10 8 -3 12 -2 9 4 -6 10 -25 14 -25 6z"/>
</g>
</svg>
